<svg width="1536.000000" height="1792.000000" viewBox="0.000000 -3328.000000 1536.000000 1792.000000" xmlns="http://www.w3.org/2000/svg"><path d="M1468.000000 -2948.000000C1486.666667 -2929.333333 1502.666667 -2904.000000 1516.000000 -2872.000000C1529.333333 -2840.000000 1536.000000 -2810.666667 1536.000000 -2784.000000L1536.000000 -1632.000000C1536.000000 -1605.333333 1526.666667 -1582.666667 1508.000000 -1564.000000C1489.333333 -1545.333333 1466.666667 -1536.000000 1440.000000 -1536.000000L96.000000 -1536.000000C69.333333 -1536.000000 46.666667 -1545.333333 28.000000 -1564.000000C9.333333 -1582.666667 0.000000 -1605.333333 0.000000 -1632.000000L0.000000 -3232.000000C0.000000 -3258.666667 9.333333 -3281.333333 28.000000 -3300.000000C46.666667 -3318.666667 69.333333 -3328.000000 96.000000 -3328.000000L992.000000 -3328.000000C1018.666667 -3328.000000 1048.000000 -3321.333333 1080.000000 -3308.000000C1112.000000 -3294.666667 1137.333333 -3278.666667 1156.000000 -3260.000000ZM1024.000000 -3192.000000L1024.000000 -2816.000000L1400.000000 -2816.000000C1393.333333 -2835.333333 1386.000000 -2849.000000 1378.000000 -2857.000000L1065.000000 -3170.000000C1057.000000 -3178.000000 1043.333333 -3185.333333 1024.000000 -3192.000000ZM1408.000000 -1664.000000L1408.000000 -2688.000000L992.000000 -2688.000000C965.333333 -2688.000000 942.666667 -2697.333333 924.000000 -2716.000000C905.333333 -2734.666667 896.000000 -2757.333333 896.000000 -2784.000000L896.000000 -3200.000000L128.000000 -3200.000000L128.000000 -1664.000000L1408.000000 -1664.000000ZM429.000000 -1898.000000L429.000000 -1792.000000L710.000000 -1792.000000L710.000000 -1898.000000L635.000000 -1898.000000L738.000000 -2059.000000C741.333333 -2063.666667 744.666667 -2069.166667 748.000000 -2075.500000C751.333333 -2081.833333 753.833333 -2086.333333 755.500000 -2089.000000C757.166667 -2091.666667 758.333333 -2093.000000 759.000000 -2093.000000L761.000000 -2093.000000C761.666667 -2090.333333 763.333333 -2087.000000 766.000000 -2083.000000C767.333333 -2080.333333 768.833333 -2077.833333 770.500000 -2075.500000C772.166667 -2073.166667 774.166667 -2070.500000 776.500000 -2067.500000C778.833333 -2064.500000 781.000000 -2061.666667 783.000000 -2059.000000L890.000000 -1898.000000L814.000000 -1898.000000L814.000000 -1792.000000L1105.000000 -1792.000000L1105.000000 -1898.000000L1037.000000 -1898.000000L845.000000 -2171.000000L1040.000000 -2453.000000L1107.000000 -2453.000000L1107.000000 -2560.000000L828.000000 -2560.000000L828.000000 -2453.000000L902.000000 -2453.000000L799.000000 -2294.000000C796.333333 -2289.333333 793.000000 -2283.833333 789.000000 -2277.500000C785.000000 -2271.166667 782.000000 -2266.666667 780.000000 -2264.000000L778.000000 -2261.000000L776.000000 -2261.000000C775.333333 -2263.666667 773.666667 -2267.000000 771.000000 -2271.000000C767.000000 -2278.333333 761.333333 -2286.000000 754.000000 -2294.000000L648.000000 -2453.000000L724.000000 -2453.000000L724.000000 -2560.000000L434.000000 -2560.000000L434.000000 -2453.000000L502.000000 -2453.000000L691.000000 -2181.000000L497.000000 -1898.000000L429.000000 -1898.000000ZM429.000000 -1898.000000"></path></svg>