<svg width="1536.000000" height="1792.000000" viewBox="0.000000 -3328.000000 1536.000000 1792.000000" xmlns="http://www.w3.org/2000/svg"><path d="M1468.000000 -2948.000000C1486.666667 -2929.333333 1502.666667 -2904.000000 1516.000000 -2872.000000C1529.333333 -2840.000000 1536.000000 -2810.666667 1536.000000 -2784.000000L1536.000000 -1632.000000C1536.000000 -1605.333333 1526.666667 -1582.666667 1508.000000 -1564.000000C1489.333333 -1545.333333 1466.666667 -1536.000000 1440.000000 -1536.000000L96.000000 -1536.000000C69.333333 -1536.000000 46.666667 -1545.333333 28.000000 -1564.000000C9.333333 -1582.666667 0.000000 -1605.333333 0.000000 -1632.000000L0.000000 -3232.000000C0.000000 -3258.666667 9.333333 -3281.333333 28.000000 -3300.000000C46.666667 -3318.666667 69.333333 -3328.000000 96.000000 -3328.000000L992.000000 -3328.000000C1018.666667 -3328.000000 1048.000000 -3321.333333 1080.000000 -3308.000000C1112.000000 -3294.666667 1137.333333 -3278.666667 1156.000000 -3260.000000ZM1024.000000 -3192.000000L1024.000000 -2816.000000L1400.000000 -2816.000000C1393.333333 -2835.333333 1386.000000 -2849.000000 1378.000000 -2857.000000L1065.000000 -3170.000000C1057.000000 -3178.000000 1043.333333 -3185.333333 1024.000000 -3192.000000ZM1408.000000 -1664.000000L1408.000000 -2688.000000L992.000000 -2688.000000C965.333333 -2688.000000 942.666667 -2697.333333 924.000000 -2716.000000C905.333333 -2734.666667 896.000000 -2757.333333 896.000000 -2784.000000L896.000000 -3200.000000L128.000000 -3200.000000L128.000000 -1664.000000L1408.000000 -1664.000000ZM894.000000 -2257.000000C916.000000 -2239.666667 944.000000 -2221.000000 978.000000 -2201.000000C1017.333333 -2205.666667 1056.333333 -2208.000000 1095.000000 -2208.000000C1193.000000 -2208.000000 1252.000000 -2191.666667 1272.000000 -2159.000000C1282.666667 -2144.333333 1283.333333 -2127.000000 1274.000000 -2107.000000C1274.000000 -2106.333333 1273.666667 -2105.666667 1273.000000 -2105.000000L1271.000000 -2103.000000L1271.000000 -2102.000000C1267.000000 -2076.666667 1243.333333 -2064.000000 1200.000000 -2064.000000C1168.000000 -2064.000000 1129.666667 -2070.666667 1085.000000 -2084.000000C1040.333333 -2097.333333 997.000000 -2115.000000 955.000000 -2137.000000C807.666667 -2121.000000 677.000000 -2093.333333 563.000000 -2054.000000C461.000000 -1879.333333 380.333333 -1792.000000 321.000000 -1792.000000C311.000000 -1792.000000 301.666667 -1794.333333 293.000000 -1799.000000L269.000000 -1811.000000C268.333333 -1811.666667 266.333333 -1813.333333 263.000000 -1816.000000C256.333333 -1822.666667 254.333333 -1834.666667 257.000000 -1852.000000C263.000000 -1878.666667 281.666667 -1909.166667 313.000000 -1943.500000C344.333333 -1977.833333 388.333333 -2010.000000 445.000000 -2040.000000C454.333333 -2046.000000 462.000000 -2044.000000 468.000000 -2034.000000C469.333333 -2032.666667 470.000000 -2031.333333 470.000000 -2030.000000C504.666667 -2086.666667 540.333333 -2152.333333 577.000000 -2227.000000C622.333333 -2317.666667 657.000000 -2405.000000 681.000000 -2489.000000C665.000000 -2543.666667 654.833333 -2596.833333 650.500000 -2648.500000C646.166667 -2700.166667 648.333333 -2742.666667 657.000000 -2776.000000C664.333333 -2802.666667 678.333333 -2816.000000 699.000000 -2816.000000L720.000000 -2816.000000L721.000000 -2816.000000C736.333333 -2816.000000 748.000000 -2811.000000 756.000000 -2801.000000C768.000000 -2787.000000 771.000000 -2764.333333 765.000000 -2733.000000C763.666667 -2729.000000 762.333333 -2726.333333 761.000000 -2725.000000C761.666667 -2723.000000 762.000000 -2720.333333 762.000000 -2717.000000L762.000000 -2687.000000C760.666667 -2605.000000 756.000000 -2541.000000 748.000000 -2495.000000C784.666667 -2385.666667 833.333333 -2306.333333 894.000000 -2257.000000ZM318.000000 -1846.000000C352.666667 -1862.000000 398.333333 -1914.666667 455.000000 -2004.000000C421.000000 -1977.333333 391.833333 -1949.333333 367.500000 -1920.000000C343.166667 -1890.666667 326.666667 -1866.000000 318.000000 -1846.000000ZM716.000000 -2766.000000C706.000000 -2738.000000 705.333333 -2694.000000 714.000000 -2634.000000C714.666667 -2638.666667 717.000000 -2653.333333 721.000000 -2678.000000C721.000000 -2680.000000 723.333333 -2694.333333 728.000000 -2721.000000C728.666667 -2723.666667 730.000000 -2726.333333 732.000000 -2729.000000C731.333333 -2729.666667 731.000000 -2730.333333 731.000000 -2731.000000C731.000000 -2731.666667 730.833333 -2732.166667 730.500000 -2732.500000C730.166667 -2732.833333 730.000000 -2733.333333 730.000000 -2734.000000C729.333333 -2748.666667 725.000000 -2760.666667 717.000000 -2770.000000C717.000000 -2769.333333 716.666667 -2768.666667 716.000000 -2768.000000L716.000000 -2766.000000ZM592.000000 -2105.000000C682.000000 -2141.000000 776.666667 -2168.000000 876.000000 -2186.000000C874.666667 -2186.666667 870.333333 -2189.833333 863.000000 -2195.500000C855.666667 -2201.166667 850.333333 -2205.666667 847.000000 -2209.000000C796.333333 -2253.666667 754.000000 -2312.333333 720.000000 -2385.000000C702.000000 -2327.666667 674.333333 -2262.000000 637.000000 -2188.000000C617.000000 -2150.666667 602.000000 -2123.000000 592.000000 -2105.000000ZM1238.000000 -2121.000000C1222.000000 -2137.000000 1175.333333 -2145.000000 1098.000000 -2145.000000C1148.666667 -2126.333333 1190.000000 -2117.000000 1222.000000 -2117.000000C1231.333333 -2117.000000 1237.333333 -2117.333333 1240.000000 -2118.000000C1240.000000 -2118.666667 1239.333333 -2119.666667 1238.000000 -2121.000000ZM1238.000000 -2121.000000"></path></svg>