<svg width="1536.000000" height="1792.000000" viewBox="0.000000 -3328.000000 1536.000000 1792.000000" xmlns="http://www.w3.org/2000/svg"><path d="M1468.000000 -2948.000000C1486.666667 -2929.333333 1502.666667 -2904.000000 1516.000000 -2872.000000C1529.333333 -2840.000000 1536.000000 -2810.666667 1536.000000 -2784.000000L1536.000000 -1632.000000C1536.000000 -1605.333333 1526.666667 -1582.666667 1508.000000 -1564.000000C1489.333333 -1545.333333 1466.666667 -1536.000000 1440.000000 -1536.000000L96.000000 -1536.000000C69.333333 -1536.000000 46.666667 -1545.333333 28.000000 -1564.000000C9.333333 -1582.666667 0.000000 -1605.333333 0.000000 -1632.000000L0.000000 -3232.000000C0.000000 -3258.666667 9.333333 -3281.333333 28.000000 -3300.000000C46.666667 -3318.666667 69.333333 -3328.000000 96.000000 -3328.000000L992.000000 -3328.000000C1018.666667 -3328.000000 1048.000000 -3321.333333 1080.000000 -3308.000000C1112.000000 -3294.666667 1137.333333 -3278.666667 1156.000000 -3260.000000ZM1024.000000 -3192.000000L1024.000000 -2816.000000L1400.000000 -2816.000000C1393.333333 -2835.333333 1386.000000 -2849.000000 1378.000000 -2857.000000L1065.000000 -3170.000000C1057.000000 -3178.000000 1043.333333 -3185.333333 1024.000000 -3192.000000ZM1408.000000 -1664.000000L1408.000000 -2688.000000L992.000000 -2688.000000C965.333333 -2688.000000 942.666667 -2697.333333 924.000000 -2716.000000C905.333333 -2734.666667 896.000000 -2757.333333 896.000000 -2784.000000L896.000000 -3200.000000L128.000000 -3200.000000L128.000000 -1664.000000L1408.000000 -1664.000000ZM416.000000 -1898.000000L416.000000 -1792.000000L743.000000 -1792.000000L743.000000 -1898.000000L650.000000 -1898.000000L650.000000 -2065.000000L787.000000 -2065.000000C837.666667 -2065.000000 877.000000 -2070.000000 905.000000 -2080.000000C949.666667 -2095.333333 985.166667 -2124.333333 1011.500000 -2167.000000C1037.833333 -2209.666667 1051.000000 -2258.333333 1051.000000 -2313.000000C1051.000000 -2367.000000 1038.666667 -2414.000000 1014.000000 -2454.000000C989.333333 -2494.000000 956.000000 -2523.000000 914.000000 -2541.000000C882.000000 -2553.666667 838.666667 -2560.000000 784.000000 -2560.000000L416.000000 -2560.000000L416.000000 -2453.000000L508.000000 -2453.000000L508.000000 -1898.000000L416.000000 -1898.000000ZM769.000000 -2178.000000L650.000000 -2178.000000L650.000000 -2446.000000L770.000000 -2446.000000C804.666667 -2446.000000 832.333333 -2440.000000 853.000000 -2428.000000C890.333333 -2406.000000 909.000000 -2367.666667 909.000000 -2313.000000C909.000000 -2253.666667 888.333333 -2213.666667 847.000000 -2193.000000C826.333333 -2183.000000 800.333333 -2178.000000 769.000000 -2178.000000ZM769.000000 -2178.000000"></path></svg>