<svg width="1536.000000" height="1792.000000" viewBox="0.000000 -3328.000000 1536.000000 1792.000000" xmlns="http://www.w3.org/2000/svg"><path d="M1468.000000 -2948.000000C1486.666667 -2929.333333 1502.666667 -2904.000000 1516.000000 -2872.000000C1529.333333 -2840.000000 1536.000000 -2810.666667 1536.000000 -2784.000000L1536.000000 -1632.000000C1536.000000 -1605.333333 1526.666667 -1582.666667 1508.000000 -1564.000000C1489.333333 -1545.333333 1466.666667 -1536.000000 1440.000000 -1536.000000L96.000000 -1536.000000C69.333333 -1536.000000 46.666667 -1545.333333 28.000000 -1564.000000C9.333333 -1582.666667 0.000000 -1605.333333 0.000000 -1632.000000L0.000000 -3232.000000C0.000000 -3258.666667 9.333333 -3281.333333 28.000000 -3300.000000C46.666667 -3318.666667 69.333333 -3328.000000 96.000000 -3328.000000L992.000000 -3328.000000C1018.666667 -3328.000000 1048.000000 -3321.333333 1080.000000 -3308.000000C1112.000000 -3294.666667 1137.333333 -3278.666667 1156.000000 -3260.000000ZM1024.000000 -3192.000000L1024.000000 -2816.000000L1400.000000 -2816.000000C1393.333333 -2835.333333 1386.000000 -2849.000000 1378.000000 -2857.000000L1065.000000 -3170.000000C1057.000000 -3178.000000 1043.333333 -3185.333333 1024.000000 -3192.000000ZM1408.000000 -1664.000000L1408.000000 -2688.000000L992.000000 -2688.000000C965.333333 -2688.000000 942.666667 -2697.333333 924.000000 -2716.000000C905.333333 -2734.666667 896.000000 -2757.333333 896.000000 -2784.000000L896.000000 -3200.000000L128.000000 -3200.000000L128.000000 -1664.000000L1408.000000 -1664.000000ZM620.000000 -2478.000000C633.333333 -2472.666667 640.000000 -2462.666667 640.000000 -2448.000000L640.000000 -1904.000000C640.000000 -1889.333333 633.333333 -1879.333333 620.000000 -1874.000000C614.666667 -1872.666667 610.666667 -1872.000000 608.000000 -1872.000000C600.000000 -1872.000000 592.333333 -1875.000000 585.000000 -1881.000000L419.000000 -2048.000000L288.000000 -2048.000000C278.666667 -2048.000000 271.000000 -2051.000000 265.000000 -2057.000000C259.000000 -2063.000000 256.000000 -2070.666667 256.000000 -2080.000000L256.000000 -2272.000000C256.000000 -2281.333333 259.000000 -2289.000000 265.000000 -2295.000000C271.000000 -2301.000000 278.666667 -2304.000000 288.000000 -2304.000000L419.000000 -2304.000000L585.000000 -2471.000000C595.666667 -2481.000000 607.333333 -2483.333333 620.000000 -2478.000000ZM1037.000000 -1789.000000C1057.666667 -1789.000000 1074.333333 -1797.000000 1087.000000 -1813.000000C1173.000000 -1919.000000 1216.000000 -2040.000000 1216.000000 -2176.000000C1216.000000 -2312.000000 1173.000000 -2433.000000 1087.000000 -2539.000000C1076.333333 -2553.000000 1062.000000 -2561.000000 1044.000000 -2563.000000C1026.000000 -2565.000000 1010.333333 -2560.333333 997.000000 -2549.000000C983.000000 -2537.666667 975.166667 -2523.166667 973.500000 -2505.500000C971.833333 -2487.833333 976.666667 -2472.000000 988.000000 -2458.000000C1054.666667 -2376.000000 1088.000000 -2282.000000 1088.000000 -2176.000000C1088.000000 -2070.000000 1054.666667 -1976.000000 988.000000 -1894.000000C976.666667 -1880.000000 971.833333 -1864.166667 973.500000 -1846.500000C975.166667 -1828.833333 983.000000 -1814.666667 997.000000 -1804.000000C1009.000000 -1794.000000 1022.333333 -1789.000000 1037.000000 -1789.000000ZM826.000000 -1937.000000C844.000000 -1937.000000 859.666667 -1943.666667 873.000000 -1957.000000C931.000000 -2019.000000 960.000000 -2092.000000 960.000000 -2176.000000C960.000000 -2260.000000 931.000000 -2333.000000 873.000000 -2395.000000C861.000000 -2407.666667 846.000000 -2414.333333 828.000000 -2415.000000C810.000000 -2415.666667 794.666667 -2410.000000 782.000000 -2398.000000C769.333333 -2386.000000 762.666667 -2371.166667 762.000000 -2353.500000C761.333333 -2335.833333 767.333333 -2320.333333 780.000000 -2307.000000C814.666667 -2269.000000 832.000000 -2225.333333 832.000000 -2176.000000C832.000000 -2126.666667 814.666667 -2083.000000 780.000000 -2045.000000C767.333333 -2031.666667 761.333333 -2016.166667 762.000000 -1998.500000C762.666667 -1980.833333 769.333333 -1966.000000 782.000000 -1954.000000C795.333333 -1942.666667 810.000000 -1937.000000 826.000000 -1937.000000ZM826.000000 -1937.000000"></path></svg>