<svg width="1536.000000" height="1792.000000" viewBox="0.000000 -3328.000000 1536.000000 1792.000000" xmlns="http://www.w3.org/2000/svg"><path d="M1468.000000 -2948.000000C1486.666667 -2929.333333 1502.666667 -2904.000000 1516.000000 -2872.000000C1529.333333 -2840.000000 1536.000000 -2810.666667 1536.000000 -2784.000000L1536.000000 -1632.000000C1536.000000 -1605.333333 1526.666667 -1582.666667 1508.000000 -1564.000000C1489.333333 -1545.333333 1466.666667 -1536.000000 1440.000000 -1536.000000L96.000000 -1536.000000C69.333333 -1536.000000 46.666667 -1545.333333 28.000000 -1564.000000C9.333333 -1582.666667 0.000000 -1605.333333 0.000000 -1632.000000L0.000000 -3232.000000C0.000000 -3258.666667 9.333333 -3281.333333 28.000000 -3300.000000C46.666667 -3318.666667 69.333333 -3328.000000 96.000000 -3328.000000L992.000000 -3328.000000C1018.666667 -3328.000000 1048.000000 -3321.333333 1080.000000 -3308.000000C1112.000000 -3294.666667 1137.333333 -3278.666667 1156.000000 -3260.000000ZM1024.000000 -3192.000000L1024.000000 -2816.000000L1400.000000 -2816.000000C1393.333333 -2835.333333 1386.000000 -2849.000000 1378.000000 -2857.000000L1065.000000 -3170.000000C1057.000000 -3178.000000 1043.333333 -3185.333333 1024.000000 -3192.000000ZM1408.000000 -1664.000000L1408.000000 -2688.000000L992.000000 -2688.000000C965.333333 -2688.000000 942.666667 -2697.333333 924.000000 -2716.000000C905.333333 -2734.666667 896.000000 -2757.333333 896.000000 -2784.000000L896.000000 -3200.000000L128.000000 -3200.000000L128.000000 -1664.000000L1408.000000 -1664.000000ZM768.000000 -2560.000000C802.666667 -2560.000000 832.666667 -2547.333333 858.000000 -2522.000000C883.333333 -2496.666667 896.000000 -2466.666667 896.000000 -2432.000000L896.000000 -2048.000000C896.000000 -2013.333333 883.333333 -1983.333333 858.000000 -1958.000000C832.666667 -1932.666667 802.666667 -1920.000000 768.000000 -1920.000000L384.000000 -1920.000000C349.333333 -1920.000000 319.333333 -1932.666667 294.000000 -1958.000000C268.666667 -1983.333333 256.000000 -2013.333333 256.000000 -2048.000000L256.000000 -2432.000000C256.000000 -2466.666667 268.666667 -2496.666667 294.000000 -2522.000000C319.333333 -2547.333333 349.333333 -2560.000000 384.000000 -2560.000000L768.000000 -2560.000000ZM1260.000000 -2558.000000C1273.333333 -2552.666667 1280.000000 -2542.666667 1280.000000 -2528.000000L1280.000000 -1952.000000C1280.000000 -1937.333333 1273.333333 -1927.333333 1260.000000 -1922.000000C1254.666667 -1920.666667 1250.666667 -1920.000000 1248.000000 -1920.000000C1238.666667 -1920.000000 1231.000000 -1923.000000 1225.000000 -1929.000000L960.000000 -2195.000000L960.000000 -2285.000000L1225.000000 -2551.000000C1231.000000 -2557.000000 1238.666667 -2560.000000 1248.000000 -2560.000000C1250.666667 -2560.000000 1254.666667 -2559.333333 1260.000000 -2558.000000ZM1260.000000 -2558.000000"></path></svg>