<svg width="1536.000000" height="1792.000000" viewBox="0.000000 -3328.000000 1536.000000 1792.000000" xmlns="http://www.w3.org/2000/svg"><path d="M1468.000000 -2948.000000C1486.666667 -2929.333333 1502.666667 -2904.000000 1516.000000 -2872.000000C1529.333333 -2840.000000 1536.000000 -2810.666667 1536.000000 -2784.000000L1536.000000 -1632.000000C1536.000000 -1605.333333 1526.666667 -1582.666667 1508.000000 -1564.000000C1489.333333 -1545.333333 1466.666667 -1536.000000 1440.000000 -1536.000000L96.000000 -1536.000000C69.333333 -1536.000000 46.666667 -1545.333333 28.000000 -1564.000000C9.333333 -1582.666667 0.000000 -1605.333333 0.000000 -1632.000000L0.000000 -3232.000000C0.000000 -3258.666667 9.333333 -3281.333333 28.000000 -3300.000000C46.666667 -3318.666667 69.333333 -3328.000000 96.000000 -3328.000000L992.000000 -3328.000000C1018.666667 -3328.000000 1048.000000 -3321.333333 1080.000000 -3308.000000C1112.000000 -3294.666667 1137.333333 -3278.666667 1156.000000 -3260.000000ZM1024.000000 -3192.000000L1024.000000 -2816.000000L1400.000000 -2816.000000C1393.333333 -2835.333333 1386.000000 -2849.000000 1378.000000 -2857.000000L1065.000000 -3170.000000C1057.000000 -3178.000000 1043.333333 -3185.333333 1024.000000 -3192.000000ZM1408.000000 -1664.000000L1408.000000 -2688.000000L992.000000 -2688.000000C965.333333 -2688.000000 942.666667 -2697.333333 924.000000 -2716.000000C905.333333 -2734.666667 896.000000 -2757.333333 896.000000 -2784.000000L896.000000 -3200.000000L128.000000 -3200.000000L128.000000 -1664.000000L1408.000000 -1664.000000ZM233.000000 -2560.000000L233.000000 -2453.000000L303.000000 -2453.000000L467.000000 -1792.000000L626.000000 -1792.000000L754.000000 -2277.000000C758.666667 -2290.333333 762.000000 -2305.666667 764.000000 -2323.000000C765.333333 -2333.666667 766.000000 -2341.666667 766.000000 -2347.000000L770.000000 -2347.000000L773.000000 -2323.000000C773.666667 -2321.000000 774.833333 -2314.333333 776.500000 -2303.000000C778.166667 -2291.666667 780.000000 -2283.000000 782.000000 -2277.000000L910.000000 -1792.000000L1069.000000 -1792.000000L1233.000000 -2453.000000L1303.000000 -2453.000000L1303.000000 -2560.000000L1003.000000 -2560.000000L1003.000000 -2453.000000L1093.000000 -2453.000000L994.000000 -2015.000000C990.666667 -2001.666667 988.333333 -1986.333333 987.000000 -1969.000000L985.000000 -1948.000000L981.000000 -1948.000000L978.000000 -1969.000000C977.333333 -1972.333333 976.000000 -1979.333333 974.000000 -1990.000000C972.000000 -2000.666667 970.333333 -2009.000000 969.000000 -2015.000000L825.000000 -2560.000000L711.000000 -2560.000000L567.000000 -2015.000000C565.666667 -2009.000000 564.166667 -2000.833333 562.500000 -1990.500000C560.833333 -1980.166667 559.666667 -1973.000000 559.000000 -1969.000000L555.000000 -1948.000000L551.000000 -1948.000000L549.000000 -1969.000000C547.666667 -1986.333333 545.333333 -2001.666667 542.000000 -2015.000000L443.000000 -2453.000000L533.000000 -2453.000000L533.000000 -2560.000000L233.000000 -2560.000000ZM233.000000 -2560.000000"></path></svg>