<svg width="1536.000000" height="1792.000000" viewBox="0.000000 -3328.000000 1536.000000 1792.000000" xmlns="http://www.w3.org/2000/svg"><path d="M640.000000 -2944.000000L640.000000 -3072.000000L512.000000 -3072.000000L512.000000 -2944.000000L640.000000 -2944.000000ZM768.000000 -2816.000000L768.000000 -2944.000000L640.000000 -2944.000000L640.000000 -2816.000000L768.000000 -2816.000000ZM640.000000 -2688.000000L640.000000 -2816.000000L512.000000 -2816.000000L512.000000 -2688.000000L640.000000 -2688.000000ZM768.000000 -2560.000000L768.000000 -2688.000000L640.000000 -2688.000000L640.000000 -2560.000000L768.000000 -2560.000000ZM1468.000000 -2948.000000C1486.666667 -2929.333333 1502.666667 -2904.000000 1516.000000 -2872.000000C1529.333333 -2840.000000 1536.000000 -2810.666667 1536.000000 -2784.000000L1536.000000 -1632.000000C1536.000000 -1605.333333 1526.666667 -1582.666667 1508.000000 -1564.000000C1489.333333 -1545.333333 1466.666667 -1536.000000 1440.000000 -1536.000000L96.000000 -1536.000000C69.333333 -1536.000000 46.666667 -1545.333333 28.000000 -1564.000000C9.333333 -1582.666667 0.000000 -1605.333333 0.000000 -1632.000000L0.000000 -3232.000000C0.000000 -3258.666667 9.333333 -3281.333333 28.000000 -3300.000000C46.666667 -3318.666667 69.333333 -3328.000000 96.000000 -3328.000000L992.000000 -3328.000000C1018.666667 -3328.000000 1048.000000 -3321.333333 1080.000000 -3308.000000C1112.000000 -3294.666667 1137.333333 -3278.666667 1156.000000 -3260.000000ZM1024.000000 -3192.000000L1024.000000 -2816.000000L1400.000000 -2816.000000C1393.333333 -2835.333333 1386.000000 -2849.000000 1378.000000 -2857.000000L1065.000000 -3170.000000C1057.000000 -3178.000000 1043.333333 -3185.333333 1024.000000 -3192.000000ZM1408.000000 -1664.000000L1408.000000 -2688.000000L992.000000 -2688.000000C965.333333 -2688.000000 942.666667 -2697.333333 924.000000 -2716.000000C905.333333 -2734.666667 896.000000 -2757.333333 896.000000 -2784.000000L896.000000 -3200.000000L768.000000 -3200.000000L768.000000 -3072.000000L640.000000 -3072.000000L640.000000 -3200.000000L128.000000 -3200.000000L128.000000 -1664.000000L1408.000000 -1664.000000ZM781.000000 -2385.000000L888.000000 -2036.000000C893.333333 -2018.000000 896.000000 -2000.666667 896.000000 -1984.000000C896.000000 -1928.666667 871.833333 -1882.833333 823.500000 -1846.500000C775.166667 -1810.166667 714.000000 -1792.000000 640.000000 -1792.000000C566.000000 -1792.000000 504.833333 -1810.166667 456.500000 -1846.500000C408.166667 -1882.833333 384.000000 -1928.666667 384.000000 -1984.000000C384.000000 -2000.666667 386.666667 -2018.000000 392.000000 -2036.000000C406.000000 -2078.000000 446.000000 -2210.000000 512.000000 -2432.000000L512.000000 -2560.000000L640.000000 -2560.000000L640.000000 -2432.000000L719.000000 -2432.000000C733.666667 -2432.000000 746.666667 -2427.666667 758.000000 -2419.000000C769.333333 -2410.333333 777.000000 -2399.000000 781.000000 -2385.000000ZM640.000000 -1920.000000C675.333333 -1920.000000 705.500000 -1926.333333 730.500000 -1939.000000C755.500000 -1951.666667 768.000000 -1966.666667 768.000000 -1984.000000C768.000000 -2001.333333 755.500000 -2016.333333 730.500000 -2029.000000C705.500000 -2041.666667 675.333333 -2048.000000 640.000000 -2048.000000C604.666667 -2048.000000 574.500000 -2041.666667 549.500000 -2029.000000C524.500000 -2016.333333 512.000000 -2001.333333 512.000000 -1984.000000C512.000000 -1966.666667 524.500000 -1951.666667 549.500000 -1939.000000C574.500000 -1926.333333 604.666667 -1920.000000 640.000000 -1920.000000ZM640.000000 -1920.000000"></path></svg>