<?xml version="1.0" encoding="utf-8"?><svg xmlns="http://www.w3.org/2000/svg" xmlns:xlink="http://www.w3.org/1999/xlink"><symbol viewBox="0 0 24 24" id="add-circle-outline"><path d="M13 7h-2v4H7v2h4v4h2v-4h4v-2h-4V7zm-1-5C6.48 2 2 6.48 2 12s4.48 10 10 10 10-4.48 10-10S17.52 2 12 2zm0 18c-4.41 0-8-3.59-8-8s3.59-8 8-8 8 3.59 8 8-3.59 8-8 8z"/></symbol><symbol viewBox="0 0 24 24" id="arrow-forward"><path d="M12 4l-1.41 1.41L16.17 11H4v2h12.17l-5.58 5.59L12 20l8-8z"/></symbol><symbol viewBox="0 0 24 24" id="brightness-medium"><path d="M20 15.31L23.31 12 20 8.69V4h-4.69L12 .69 8.69 4H4v4.69L.69 12 4 15.31V20h4.69L12 23.31 15.31 20H20v-4.69zM12 18V6c3.31 0 6 2.69 6 6s-2.69 6-6 6z"/></symbol><symbol viewBox="0 0 14 14" id="close"><g fill="none" fill-rule="evenodd"><path d="M-5-5h24v24H-5z"/><path d="M14 1.41L12.59 0 7 5.59 1.41 0 0 1.41 5.59 7 0 12.59 1.41 14 7 8.41 12.59 14 14 12.59 8.41 7z"/></g></symbol><symbol viewBox="0 0 24 24" id="content-paste"><path d="M19 2h-4.18C14.4.84 13.3 0 12 0c-1.3 0-2.4.84-2.82 2H5c-1.1 0-2 .9-2 2v16c0 1.1.9 2 2 2h14c1.1 0 2-.9 2-2V4c0-1.1-.9-2-2-2zm-7 0c.55 0 1 .45 1 1s-.45 1-1 1-1-.45-1-1 .45-1 1-1zm7 18H5V4h2v3h10V4h2v16z"/></symbol><symbol viewBox="0 0 24 24" id="directions-car"><path d="M18.92 6.01C18.72 5.42 18.16 5 17.5 5h-11c-.66 0-1.21.42-1.42 1.01L3 12v8c0 .55.45 1 1 1h1c.55 0 1-.45 1-1v-1h12v1c0 .55.45 1 1 1h1c.55 0 1-.45 1-1v-8l-2.08-5.99zM6.5 16c-.83 0-1.5-.67-1.5-1.5S5.67 13 6.5 13s1.5.67 1.5 1.5S7.33 16 6.5 16zm11 0c-.83 0-1.5-.67-1.5-1.5s.67-1.5 1.5-1.5 1.5.67 1.5 1.5-.67 1.5-1.5 1.5zM5 11l1.5-4.5h11L19 11H5z"/></symbol><symbol viewBox="0 0 24 24" id="directions-run"><path d="M13.49 5.48c1.1 0 2-.9 2-2s-.9-2-2-2-2 .9-2 2 .9 2 2 2zm-3.6 13.9l1-4.4 2.1 2v6h2v-7.5l-2.1-2 .6-3c1.3 1.5 3.3 2.5 5.5 2.5v-2c-1.9 0-3.5-1-4.3-2.4l-1-1.6c-.4-.6-1-1-1.7-1-.3 0-.5.1-.8.1l-5.2 2.2v4.7h2v-3.4l1.8-.7-1.6 8.1-4.9-1-.4 2 7 1.4z"/></symbol><symbol viewBox="0 0 20 20" id="email"><title>Combined Shape</title><path d="M10 0C4.477 0 0 4.477 0 10s4.477 10 10 10 10-4.477 10-10S15.523 0 10 0zm4 6H6c-.55 0-.995.45-.995 1L5 13c0 .55.45 1 1 1h8c.55 0 1-.45 1-1V7c0-.55-.45-1-1-1zm0 2l-4 2.5L6 8V7l4 2.5L14 7v1z" fill-rule="evenodd"/></symbol><symbol viewBox="0 0 20 20" id="error"><path d="M10 0C4.48 0 0 4.48 0 10s4.48 10 10 10 10-4.48 10-10S15.52 0 10 0zm1 15H9v-2h2v2zm0-4H9V5h2v6z" fill-rule="evenodd"/></symbol><symbol viewBox="0 0 24 24" id="event"><path d="M17 12h-5v5h5v-5zM16 1v2H8V1H6v2H5c-1.11 0-1.99.9-1.99 2L3 19a2 2 0 0 0 2 2h14c1.1 0 2-.9 2-2V5c0-1.1-.9-2-2-2h-1V1h-2zm3 18H5V8h14v11z"/><path d="M0 0h24v24H0z" fill="none"/></symbol><symbol viewBox="0 0 24 24" id="event-note"><path d="M17 10H7v2h10v-2zm2-7h-1V1h-2v2H8V1H6v2H5c-1.11 0-1.99.9-1.99 2L3 19a2 2 0 0 0 2 2h14c1.1 0 2-.9 2-2V5c0-1.1-.9-2-2-2zm0 16H5V8h14v11zm-5-5H7v2h7v-2z"/></symbol><symbol viewBox="0 0 24 24" id="expand-more"><path d="M16.59 8.59L12 13.17 7.41 8.59 6 10l6 6 6-6z"/><path d="M0 0h24v24H0z" fill="none"/></symbol><symbol viewBox="0 0 24 24" id="explore"><path d="M12 10.9c-.61 0-1.1.49-1.1 1.1s.49 1.1 1.1 1.1c.61 0 1.1-.49 1.1-1.1s-.49-1.1-1.1-1.1zM12 2C6.48 2 2 6.48 2 12s4.48 10 10 10 10-4.48 10-10S17.52 2 12 2zm2.19 12.19L6 18l3.81-8.19L18 6l-3.81 8.19z"/><path d="M0 0h24v24H0z" fill="none"/></symbol><symbol viewBox="0 0 20 20" id="facebook"><path d="M10 .4C4.698.4.4 4.698.4 10s4.298 9.6 9.6 9.6 9.6-4.298 9.6-9.6S15.302.4 10 .4zm2.274 6.634h-1.443c-.171 0-.361.225-.361.524V8.6h1.805l-.273 1.486H10.47v4.461H8.767v-4.461H7.222V8.6h1.545v-.874c0-1.254.87-2.273 2.064-2.273h1.443v1.581z"/></symbol><symbol viewBox="0.000000 -3328.000000 1536.000000 1792.000000" id="file-type--excel"><path d="M1468-2948c18.667 18.667 34.667 44 48 76 13.333 32 20 61.333 20 88v1152c0 26.667-9.333 49.333-28 68s-41.333 28-68 28H96c-26.667 0-49.333-9.333-68-28s-28-41.333-28-68v-1600c0-26.667 9.333-49.333 28-68s41.333-28 68-28h896c26.667 0 56 6.667 88 20s57.333 29.333 76 48zm-444-244v376h376c-6.667-19.333-14-33-22-41l-313-313c-8-8-21.667-15.333-41-22zm384 1528v-1024H992c-26.667 0-49.333-9.333-68-28s-28-41.333-28-68v-416H128v1536h1280zm-979-234v106h281v-106h-75l103-161c3.333-4.667 6.667-10.167 10-16.5s5.833-10.833 7.5-13.5c1.667-2.667 2.833-4 3.5-4h2c.667 2.667 2.333 6 5 10a55.839 55.839 0 0 0 4.5 7.5c1.667 2.333 3.667 5 6 8s4.5 5.833 6.5 8.5l107 161h-76v106h291v-106h-68l-192-273 195-282h67v-107H828v107h74l-103 159c-2.667 4.667-6 10.167-10 16.5s-7 10.833-9 13.5l-2 3h-2c-.667-2.667-2.333-6-5-10-4-7.333-9.667-15-17-23l-106-159h76v-107H434v107h68l189 272-194 283h-68zm0 0"/></symbol><symbol viewBox="0.000000 -3328.000000 1536.000000 1792.000000" id="file-type--image"><path d="M1468-2948c18.667 18.667 34.667 44 48 76 13.333 32 20 61.333 20 88v1152c0 26.667-9.333 49.333-28 68s-41.333 28-68 28H96c-26.667 0-49.333-9.333-68-28s-28-41.333-28-68v-1600c0-26.667 9.333-49.333 28-68s41.333-28 68-28h896c26.667 0 56 6.667 88 20s57.333 29.333 76 48zm-444-244v376h376c-6.667-19.333-14-33-22-41l-313-313c-8-8-21.667-15.333-41-22zm384 1528v-1024H992c-26.667 0-49.333-9.333-68-28s-28-41.333-28-68v-416H128v1536h1280zm-128-448v320H256v-192l192-192 128 128 384-384zm-832-192c-53.333 0-98.667-18.667-136-56s-56-82.667-56-136 18.667-98.667 56-136 82.667-56 136-56 98.667 18.667 136 56 56 82.667 56 136-18.667 98.667-56 136-82.667 56-136 56zm0 0"/></symbol><symbol viewBox="0 0 24 24" id="file-type--mail"><path d="M0 0h24v24H0z" fill="none"/><path d="M20 4H4c-1.1 0-1.99.9-1.99 2L2 18c0 1.1.9 2 2 2h16c1.1 0 2-.9 2-2V6c0-1.1-.9-2-2-2zm0 14H4V8l8 5 8-5v10zm-8-7L4 6h16l-8 5z"/></symbol><symbol viewBox="0.000000 -3328.000000 1536.000000 1792.000000" id="file-type--pdf"><path d="M1468-2948c18.667 18.667 34.667 44 48 76 13.333 32 20 61.333 20 88v1152c0 26.667-9.333 49.333-28 68s-41.333 28-68 28H96c-26.667 0-49.333-9.333-68-28s-28-41.333-28-68v-1600c0-26.667 9.333-49.333 28-68s41.333-28 68-28h896c26.667 0 56 6.667 88 20s57.333 29.333 76 48zm-444-244v376h376c-6.667-19.333-14-33-22-41l-313-313c-8-8-21.667-15.333-41-22zm384 1528v-1024H992c-26.667 0-49.333-9.333-68-28s-28-41.333-28-68v-416H128v1536h1280zm-514-593c22 17.333 50 36 84 56 39.333-4.667 78.333-7 117-7 98 0 157 16.333 177 49 10.667 14.667 11.333 32 2 52 0 .667-.333 1.333-1 2l-2 2v1c-4 25.333-27.667 38-71 38-32 0-70.333-6.667-115-20s-88-31-130-53c-147.333 16-278 43.667-392 83-102 174.667-182.667 262-242 262-10 0-19.333-2.333-28-7l-24-12c-.667-.667-2.667-2.333-6-5-6.667-6.667-8.667-18.667-6-36 6-26.667 24.667-57.167 56-91.5s75.333-66.5 132-96.5c9.333-6 17-4 23 6 1.333 1.333 2 2.667 2 4 34.667-56.667 70.333-122.333 107-197 45.333-90.667 80-178 104-262-16-54.667-26.167-107.833-30.5-159.5-4.333-51.667-2.167-94.167 6.5-127.5 7.333-26.667 21.333-40 42-40h22c15.333 0 27 5 35 15 12 14 15 36.667 9 68-1.333 4-2.667 6.667-4 8 .667 2 1 4.667 1 8v30c-1.333 82-6 146-14 192 36.667 109.333 85.333 188.667 146 238zm-576 411c34.667-16 80.333-68.667 137-158-34 26.667-63.167 54.667-87.5 84s-40.833 54-49.5 74zm398-920c-10 28-10.667 72-2 132 .667-4.667 3-19.333 7-44 0-2 2.333-16.333 7-43 .667-2.667 2-5.333 4-8-.667-.667-1-1.333-1-2s-.167-1.167-.5-1.5c-.333-.333-.5-.833-.5-1.5-.667-14.667-5-26.667-13-36 0 .667-.333 1.333-1 2v2zm-124 661c90-36 184.667-63 284-81-1.333-.667-5.667-3.833-13-9.5s-12.667-10.167-16-13.5c-50.667-44.667-93-103.333-127-176-18 57.333-45.667 123-83 197-20 37.333-35 65-45 83zm646-16c-16-16-62.667-24-140-24 50.667 18.667 92 28 124 28 9.333 0 15.333-.333 18-1 0-.667-.667-1.667-2-3zm0 0"/></symbol><symbol viewBox="0 0 24 24" id="file-type--phone"><path d="M0 0h24v24H0z" fill="none"/><path d="M6.62 10.79c1.44 2.83 3.76 5.14 6.59 6.59l2.2-2.2c.27-.27.67-.36 1.02-.24 1.12.37 2.33.57 3.57.57.55 0 1 .45 1 1V20c0 .55-.45 1-1 1-9.39 0-17-7.61-17-17 0-.55.45-1 1-1h3.5c.55 0 1 .45 1 1 0 1.25.2 2.45.57 3.57.11.35.03.74-.25 1.02l-2.2 2.2z"/></symbol><symbol viewBox="0.000000 -3328.000000 1536.000000 1792.000000" id="file-type--ppt"><path d="M1468-2948c18.667 18.667 34.667 44 48 76 13.333 32 20 61.333 20 88v1152c0 26.667-9.333 49.333-28 68s-41.333 28-68 28H96c-26.667 0-49.333-9.333-68-28s-28-41.333-28-68v-1600c0-26.667 9.333-49.333 28-68s41.333-28 68-28h896c26.667 0 56 6.667 88 20s57.333 29.333 76 48zm-444-244v376h376c-6.667-19.333-14-33-22-41l-313-313c-8-8-21.667-15.333-41-22zm384 1528v-1024H992c-26.667 0-49.333-9.333-68-28s-28-41.333-28-68v-416H128v1536h1280zm-992-234v106h327v-106h-93v-167h137c50.667 0 90-5 118-15 44.667-15.333 80.167-44.333 106.5-87s39.5-91.333 39.5-146c0-54-12.333-101-37-141s-58-69-100-87c-32-12.667-75.333-19-130-19H416v107h92v555h-92zm353-280H650v-268h120c34.667 0 62.333 6 83 18 37.333 22 56 60.333 56 115 0 59.333-20.667 99.333-62 120-20.667 10-46.667 15-78 15zm0 0"/></symbol><symbol viewBox="0.000000 -3328.000000 1536.000000 1792.000000" id="file-type--sound"><path d="M1468-2948c18.667 18.667 34.667 44 48 76 13.333 32 20 61.333 20 88v1152c0 26.667-9.333 49.333-28 68s-41.333 28-68 28H96c-26.667 0-49.333-9.333-68-28s-28-41.333-28-68v-1600c0-26.667 9.333-49.333 28-68s41.333-28 68-28h896c26.667 0 56 6.667 88 20s57.333 29.333 76 48zm-444-244v376h376c-6.667-19.333-14-33-22-41l-313-313c-8-8-21.667-15.333-41-22zm384 1528v-1024H992c-26.667 0-49.333-9.333-68-28s-28-41.333-28-68v-416H128v1536h1280zm-788-814c13.333 5.333 20 15.333 20 30v544c0 14.667-6.667 24.667-20 30-5.333 1.333-9.333 2-12 2-8 0-15.667-3-23-9l-166-167H288c-9.333 0-17-3-23-9s-9-13.667-9-23v-192c0-9.333 3-17 9-23s13.667-9 23-9h131l166-167c10.667-10 22.333-12.333 35-7zm417 689c20.667 0 37.333-8 50-24 86-106 129-227 129-363s-43-257-129-363c-10.667-14-25-22-43-24s-33.667 2.667-47 14c-14 11.333-21.833 25.833-23.5 43.5-1.667 17.667 3.167 33.5 14.5 47.5 66.667 82 100 176 100 282s-33.333 200-100 282c-11.333 14-16.167 29.833-14.5 47.5 1.667 17.667 9.5 31.833 23.5 42.5 12 10 25.333 15 40 15zm-211-148c18 0 33.667-6.667 47-20 58-62 87-135 87-219s-29-157-87-219c-12-12.667-27-19.333-45-20-18-.667-33.333 5-46 17-12.667 12-19.333 26.833-20 44.5-.667 17.667 5.333 33.167 18 46.5 34.667 38 52 81.667 52 131s-17.333 93-52 131c-12.667 13.333-18.667 28.833-18 46.5.667 17.667 7.333 32.5 20 44.5 13.333 11.333 28 17 44 17zm0 0"/></symbol><symbol viewBox="0.000000 -3328.000000 1536.000000 1792.000000" id="file-type--video"><path d="M1468-2948c18.667 18.667 34.667 44 48 76 13.333 32 20 61.333 20 88v1152c0 26.667-9.333 49.333-28 68s-41.333 28-68 28H96c-26.667 0-49.333-9.333-68-28s-28-41.333-28-68v-1600c0-26.667 9.333-49.333 28-68s41.333-28 68-28h896c26.667 0 56 6.667 88 20s57.333 29.333 76 48zm-444-244v376h376c-6.667-19.333-14-33-22-41l-313-313c-8-8-21.667-15.333-41-22zm384 1528v-1024H992c-26.667 0-49.333-9.333-68-28s-28-41.333-28-68v-416H128v1536h1280zm-640-896c34.667 0 64.667 12.667 90 38s38 55.333 38 90v384c0 34.667-12.667 64.667-38 90s-55.333 38-90 38H384c-34.667 0-64.667-12.667-90-38s-38-55.333-38-90v-384c0-34.667 12.667-64.667 38-90s55.333-38 90-38h384zm492 2c13.333 5.333 20 15.333 20 30v576c0 14.667-6.667 24.667-20 30-5.333 1.333-9.333 2-12 2-9.333 0-17-3-23-9l-265-266v-90l265-266c6-6 13.667-9 23-9 2.667 0 6.667.667 12 2zm0 0"/></symbol><symbol viewBox="0.000000 -3328.000000 1536.000000 1792.000000" id="file-type--word"><path d="M1468-2948c18.667 18.667 34.667 44 48 76 13.333 32 20 61.333 20 88v1152c0 26.667-9.333 49.333-28 68s-41.333 28-68 28H96c-26.667 0-49.333-9.333-68-28s-28-41.333-28-68v-1600c0-26.667 9.333-49.333 28-68s41.333-28 68-28h896c26.667 0 56 6.667 88 20s57.333 29.333 76 48zm-444-244v376h376c-6.667-19.333-14-33-22-41l-313-313c-8-8-21.667-15.333-41-22zm384 1528v-1024H992c-26.667 0-49.333-9.333-68-28s-28-41.333-28-68v-416H128v1536h1280zM233-2560v107h70l164 661h159l128-485c4.667-13.333 8-28.667 10-46 1.333-10.667 2-18.667 2-24h4l3 24c.667 2 1.833 8.667 3.5 20s3.5 20 5.5 26l128 485h159l164-661h70v-107h-300v107h90l-99 438c-3.333 13.333-5.667 28.667-7 46l-2 21h-4l-3-21c-.667-3.333-2-10.333-4-21s-3.667-19-5-25l-144-545H711l-144 545c-1.333 6-2.833 14.167-4.5 24.5a4916.176 4916.176 0 0 1-3.5 21.5l-4 21h-4l-2-21c-1.333-17.333-3.667-32.667-7-46l-99-438h90v-107H233zm0 0"/></symbol><symbol viewBox="0.000000 -3328.000000 1536.000000 1792.000000" id="file-type--zip"><path d="M640-2944v-128H512v128h128zm128 128v-128H640v128h128zm-128 128v-128H512v128h128zm128 128v-128H640v128h128zm700-388c18.667 18.667 34.667 44 48 76 13.333 32 20 61.333 20 88v1152c0 26.667-9.333 49.333-28 68s-41.333 28-68 28H96c-26.667 0-49.333-9.333-68-28s-28-41.333-28-68v-1600c0-26.667 9.333-49.333 28-68s41.333-28 68-28h896c26.667 0 56 6.667 88 20s57.333 29.333 76 48zm-444-244v376h376c-6.667-19.333-14-33-22-41l-313-313c-8-8-21.667-15.333-41-22zm384 1528v-1024H992c-26.667 0-49.333-9.333-68-28s-28-41.333-28-68v-416H768v128H640v-128H128v1536h1280zm-627-721l107 349c5.333 18 8 35.333 8 52 0 55.333-24.167 101.167-72.5 137.5S714-1792 640-1792s-135.167-18.167-183.5-54.5S384-1928.667 384-1984c0-16.667 2.667-34 8-52 14-42 54-174 120-396v-128h128v128h79c14.667 0 27.667 4.333 39 13 11.333 8.667 19 20 23 34zm-141 465c35.333 0 65.5-6.333 90.5-19s37.5-27.667 37.5-45-12.5-32.333-37.5-45c-25-12.667-55.167-19-90.5-19s-65.5 6.333-90.5 19-37.5 27.667-37.5 45 12.5 32.333 37.5 45c25 12.667 55.167 19 90.5 19zm0 0"/></symbol><symbol viewBox="0 0 24 24" id="format-list-numbered"><path d="M2 17h2v.5H3v1h1v.5H2v1h3v-4H2v1zm1-9h1V4H2v1h1v3zm-1 3h1.8L2 13.1v.9h3v-1H3.2L5 10.9V10H2v1zm5-6v2h14V5H7zm0 14h14v-2H7v2zm0-6h14v-2H7v2z"/><path d="M0 0h24v24H0z" fill="none"/></symbol><symbol viewBox="0 0 20 20" id="google"><path d="M10 .4C4.698.4.4 4.698.4 10s4.298 9.6 9.6 9.6 9.6-4.298 9.6-9.6S15.302.4 10 .4zm-.553 13.721c-.603.293-1.252.324-1.503.324h-.129c-.392 0-2.343-.09-2.343-1.867 0-1.746 2.125-1.883 2.776-1.883h.017c-.376-.502-.298-1.008-.298-1.008a2.34 2.34 0 0 1-.14.004c-.245 0-.718-.039-1.124-.301-.498-.32-.75-.865-.75-1.619 0-2.131 2.327-2.217 2.35-2.219h2.324v.051c0 .26-.467.311-.785.354-.108.016-.325.037-.386.068.589.315.684.809.684 1.545 0 .838-.328 1.281-.676 1.592-.216.193-.385.344-.385.547 0 .199.232.402.502.639.441.389 1.046.918 1.046 1.811 0 .923-.397 1.583-1.18 1.962zM14.5 10H13v1.5h-1V10h-1.5V9H12V7.5h1V9h1.5v1zm-6.277 1.15a2.08 2.08 0 0 0-.157.006 1.918 1.918 0 0 0-1.15.469c-.294.266-.444.602-.423.941.045.711.808 1.127 1.735 1.061.912-.066 1.52-.592 1.476-1.303-.042-.668-.623-1.174-1.481-1.174zm.874-3.865c-.242-.85-.632-1.102-1.238-1.102a.75.75 0 0 0-.194.027c-.263.075-.472.294-.588.62-.119.33-.126.674-.024 1.066.185.701.683 1.209 1.185 1.209a.664.664 0 0 0 .194-.027c.549-.154.893-.992.665-1.793z"/></symbol><symbol viewBox="0 0 24 24" id="hearing"><path d="M17 20c-.29 0-.56-.06-.76-.15-.71-.37-1.21-.88-1.71-2.38-.51-1.56-1.47-2.29-2.39-3-.79-.61-1.61-1.24-2.32-2.53C9.29 10.98 9 9.93 9 9c0-2.8 2.2-5 5-5s5 2.2 5 5h2c0-3.93-3.07-7-7-7S7 5.07 7 9c0 1.26.38 2.65 1.07 3.9.91 1.65 1.98 2.48 2.85 3.15.81.62 1.39 1.07 1.71 2.05.6 1.82 1.37 2.84 2.73 3.55A3.999 3.999 0 0 0 21 18h-2c0 1.1-.9 2-2 2zM7.64 2.64L6.22 1.22C4.23 3.21 3 5.96 3 9s1.23 5.79 3.22 7.78l1.41-1.41C6.01 13.74 5 11.49 5 9s1.01-4.74 2.64-6.36zM11.5 9a2.5 2.5 0 0 0 5 0 2.5 2.5 0 0 0-5 0z"/><path d="M0 0h24v24H0z" fill="none"/></symbol><symbol viewBox="0 0 24 24" id="help"><path d="M0 0h24v24H0z" fill="none"/><path d="M12 2C6.48 2 2 6.48 2 12s4.48 10 10 10 10-4.48 10-10S17.52 2 12 2zm1 17h-2v-2h2v2zm2.07-7.75l-.9.92C13.45 12.9 13 13.5 13 15h-2v-.5c0-1.1.45-2.1 1.17-2.83l1.24-1.26c.37-.36.59-.86.59-1.41 0-1.1-.9-2-2-2s-2 .9-2 2H8c0-2.21 1.79-4 4-4s4 1.79 4 4c0 .88-.36 1.68-.93 2.25z"/></symbol><symbol viewBox="0 0 24 24" id="history"><path d="M0 0h24v24H0z" fill="none"/><path d="M13 3a9 9 0 0 0-9 9H1l3.89 3.89.07.14L9 12H6c0-3.87 3.13-7 7-7s7 3.13 7 7-3.13 7-7 7c-1.93 0-3.68-.79-4.94-2.06l-1.42 1.42A8.954 8.954 0 0 0 13 21a9 9 0 0 0 0-18zm-1 5v5l4.28 2.54.72-1.21-3.5-2.08V8H12z"/></symbol><symbol viewBox="0 0 24 24" id="home"><path d="M10 20v-6h4v6h5v-8h3L12 3 2 12h3v8z"/><path d="M0 0h24v24H0z" fill="none"/></symbol><symbol viewBox="0 0 20 20" id="info"><title>info</title><path d="M10 0C4.48 0 0 4.48 0 10s4.48 10 10 10 10-4.48 10-10S15.52 0 10 0zm1 15H9V9h2v6zm0-8H9V5h2v2z" fill-rule="evenodd"/></symbol><symbol viewBox="0 0 24 24" id="info-outline"><path d="M0 0h24v24H0z" fill="none"/><path d="M11 17h2v-6h-2v6zm1-15C6.48 2 2 6.48 2 12s4.48 10 10 10 10-4.48 10-10S17.52 2 12 2zm0 18c-4.41 0-8-3.59-8-8s3.59-8 8-8 8 3.59 8 8-3.59 8-8 8zM11 9h2V7h-2v2z"/></symbol><symbol viewBox="0 0 20 20" id="linkedin"><path d="M10 .4C4.698.4.4 4.698.4 10s4.298 9.6 9.6 9.6 9.6-4.298 9.6-9.6S15.302.4 10 .4zM7.65 13.979H5.706V7.723H7.65v6.256zm-.984-7.024c-.614 0-1.011-.435-1.011-.973 0-.549.409-.971 1.036-.971s1.011.422 1.023.971c0 .538-.396.973-1.048.973zm8.084 7.024h-1.944v-3.467c0-.807-.282-1.355-.985-1.355-.537 0-.856.371-.997.728-.052.127-.065.307-.065.486v3.607H8.814v-4.26c0-.781-.025-1.434-.051-1.996h1.689l.089.869h.039c.256-.408.883-1.01 1.932-1.01 1.279 0 2.238.857 2.238 2.699v3.699z"/></symbol><symbol viewBox="0 0 24 24" id="local-parking"><path d="M0 0h24v24H0z" fill="none"/><path d="M13 3H6v18h4v-6h3c3.31 0 6-2.69 6-6s-2.69-6-6-6zm.2 8H10V7h3.2c1.1 0 2 .9 2 2s-.9 2-2 2z"/></symbol><symbol viewBox="0 0 24 24" id="location-on"><path d="M12 2C8.13 2 5 5.13 5 9c0 5.25 7 13 7 13s7-7.75 7-13c0-3.87-3.13-7-7-7zm0 9.5a2.5 2.5 0 0 1 0-5 2.5 2.5 0 0 1 0 5z"/><path d="M0 0h24v24H0z" fill="none"/></symbol><symbol viewBox="0 0 24 24" id="menu"><path d="M0 0h24v24H0z" fill="none"/><path d="M3 18h18v-2H3v2zm0-5h18v-2H3v2zm0-7v2h18V6H3z"/></symbol><symbol viewBox="0 0 20 20" id="message--error"><path d="M10 0C4.48 0 0 4.48 0 10s4.48 10 10 10 10-4.48 10-10S15.52 0 10 0zm1 15H9v-2h2v2zm0-4H9V5h2v6z" fill-rule="evenodd"/></symbol><symbol viewBox="0 0 20 20" id="message--info"><title>info</title><path d="M10 0C4.48 0 0 4.48 0 10s4.48 10 10 10 10-4.48 10-10S15.52 0 10 0zm1 15H9V9h2v6zm0-8H9V5h2v2z" fill-rule="evenodd"/></symbol><symbol viewBox="0 0 20 20" id="message--success"><path d="M10 0C4.48 0 0 4.48 0 10s4.48 10 10 10 10-4.48 10-10S15.52 0 10 0zM8 15l-5-5 1.41-1.41L8 12.17l7.59-7.59L17 6l-9 9z" fill-rule="evenodd"/></symbol><symbol viewBox="0 0 24 24" id="message--warning"><path d="M0 0h24v24H0z" fill="none"/><path d="M1 21h22L12 2 1 21zm12-3h-2v-2h2v2zm0-4h-2v-4h2v4z"/></symbol><symbol viewBox="0 0 24 24" id="mode-edit"><path d="M3 17.25V21h3.75L17.81 9.94l-3.75-3.75L3 17.25zM20.71 7.04a.996.996 0 0 0 0-1.41l-2.34-2.34a.996.996 0 0 0-1.41 0l-1.83 1.83 3.75 3.75 1.83-1.83z"/><path d="M0 0h24v24H0z" fill="none"/></symbol><symbol viewBox="0 0 24 24" id="open-in-browser"><path d="M0 0h24v24H0z" fill="none"/><path d="M19 4H5a2 2 0 0 0-2 2v12a2 2 0 0 0 2 2h4v-2H5V8h14v10h-4v2h4c1.1 0 2-.9 2-2V6a2 2 0 0 0-2-2zm-7 6l-4 4h3v6h2v-6h3l-4-4z"/></symbol><symbol viewBox="0 0 24 24" id="party-mode"><path d="M0 0h24v24H0z" fill="none"/><path d="M20 4h-3.17L15 2H9L7.17 4H4c-1.1 0-2 .9-2 2v12c0 1.1.9 2 2 2h16c1.1 0 2-.9 2-2V6c0-1.1-.9-2-2-2zm-8 3c1.63 0 3.06.79 3.98 2H12c-1.66 0-3 1.34-3 3 0 .35.07.69.18 1H7.1A5.002 5.002 0 0 1 12 7zm0 10c-1.63 0-3.06-.79-3.98-2H12c1.66 0 3-1.34 3-3 0-.35-.07-.69-.18-1h2.08a5.002 5.002 0 0 1-4.9 6z"/></symbol><symbol viewBox="0 0 24 24" id="person"><path d="M12 12c2.21 0 4-1.79 4-4s-1.79-4-4-4-4 1.79-4 4 1.79 4 4 4zm0 2c-2.67 0-8 1.34-8 4v2h16v-2c0-2.66-5.33-4-8-4z"/><path d="M0 0h24v24H0z" fill="none"/></symbol><symbol viewBox="0 0 24 24" id="phone-iphone"><path d="M15.5 1h-8A2.5 2.5 0 0 0 5 3.5v17A2.5 2.5 0 0 0 7.5 23h8a2.5 2.5 0 0 0 2.5-2.5v-17A2.5 2.5 0 0 0 15.5 1zm-4 21c-.83 0-1.5-.67-1.5-1.5s.67-1.5 1.5-1.5 1.5.67 1.5 1.5-.67 1.5-1.5 1.5zm4.5-4H7V4h9v14z"/><path d="M0 0h24v24H0z" fill="none"/></symbol><symbol viewBox="0 0 24 24" id="picture-in-picture"><path d="M19 7h-8v6h8V7zm2-4H3c-1.1 0-2 .9-2 2v14c0 1.1.9 1.98 2 1.98h18c1.1 0 2-.88 2-1.98V5c0-1.1-.9-2-2-2zm0 16.01H3V4.98h18v14.03z"/><path d="M0 0h24v24H0z" fill="none"/></symbol><symbol viewBox="0 0 20 20" id="pinterest"><path d="M10 .4C4.698.4.4 4.698.4 10s4.298 9.6 9.6 9.6 9.6-4.298 9.6-9.6S15.302.4 10 .4zm.657 11.875c-.616-.047-.874-.352-1.356-.644-.265 1.391-.589 2.725-1.549 3.422-.297-2.104.434-3.682.774-5.359-.579-.975.069-2.936 1.291-2.454 1.503.596-1.302 3.625.581 4.004 1.966.394 2.769-3.412 1.55-4.648-1.762-1.787-5.127-.041-4.713 2.517.1.625.747.815.258 1.678-1.127-.25-1.464-1.139-1.42-2.324.069-1.94 1.743-3.299 3.421-3.486 2.123-.236 4.115.779 4.391 2.777.309 2.254-.959 4.693-3.228 4.517z"/></symbol><symbol viewBox="0 0 24 24" id="place"><path d="M12 2C8.13 2 5 5.13 5 9c0 5.25 7 13 7 13s7-7.75 7-13c0-3.87-3.13-7-7-7zm0 9.5a2.5 2.5 0 0 1 0-5 2.5 2.5 0 0 1 0 5z"/><path d="M0 0h24v24H0z" fill="none"/></symbol><symbol viewBox="0 0 20 20" id="print"><title>Combined Shape</title><path d="M10 0C4.477 0 0 4.477 0 10s4.477 10 10 10 10-4.477 10-10S15.523 0 10 0zm3.5 8.5h-7C5.67 8.5 5 9.17 5 10v3h2v2h6v-2h2v-3c0-.83-.67-1.5-1.5-1.5zM12 14H8v-2.5h4V14zm1.5-3.5a.501.501 0 0 1-.5-.5c0-.275.225-.5.5-.5s.5.225.5.5-.225.5-.5.5zM13 6H7v2h6V6z" fill-rule="evenodd"/></symbol><symbol viewBox="0 0 24 24" id="public"><path d="M0 0h24v24H0z" fill="none"/><path d="M12 2C6.48 2 2 6.48 2 12s4.48 10 10 10 10-4.48 10-10S17.52 2 12 2zm-1 17.93c-3.95-.49-7-3.85-7-7.93 0-.62.08-1.21.21-1.79L9 15v1c0 1.1.9 2 2 2v1.93zm6.9-2.54c-.26-.81-1-1.39-1.9-1.39h-1v-3c0-.55-.45-1-1-1H8v-2h2c.55 0 1-.45 1-1V7h2c1.1 0 2-.9 2-2v-.41c2.93 1.19 5 4.06 5 7.41 0 2.08-.8 3.97-2.1 5.39z"/></symbol><symbol viewBox="0 0 24 24" id="remove"><path d="M0 0h24v24H0z" fill="none"/><path d="M7 11v2h10v-2H7zm5-9C6.48 2 2 6.48 2 12s4.48 10 10 10 10-4.48 10-10S17.52 2 12 2zm0 18c-4.41 0-8-3.59-8-8s3.59-8 8-8 8 3.59 8 8-3.59 8-8 8z"/></symbol><symbol viewBox="0 0 354.287 354.287" id="rss"><path d="M88.924 305.208c5.01 21.515-8.383 43.03-29.903 48.031-21.522 5.002-43.036-8.381-48.037-29.904-5.005-21.521 8.386-43.031 29.911-48.038 21.521-5.002 43.02 8.392 48.029 29.911zM72.268 190.229l-12.883 31.059c42.648 17.685 73.57 59.36 78.771 106.146l33.412-3.711c-6.527-58.786-45.51-111.191-99.3-133.494zm17.453-98.204L75.3 122.395c80.232 38.116 137.62 116.731 149.762 205.169l33.302-4.574c-13.65-99.547-78.276-188.051-168.643-230.965zM109.646 0L95.223 30.373C214.304 86.925 296.954 203.69 310.917 335.094l33.434-3.562C329.156 188.573 239.224 61.538 109.646 0z"/></symbol><symbol viewBox="0 0 24 24" id="schedule"><path d="M11.99 2C6.47 2 2 6.48 2 12s4.47 10 9.99 10C17.52 22 22 17.52 22 12S17.52 2 11.99 2zM12 20c-4.42 0-8-3.58-8-8s3.58-8 8-8 8 3.58 8 8-3.58 8-8 8z"/><path d="M0 0h24v24H0z" fill="none"/><path d="M12.5 7H11v6l5.25 3.15.75-1.23-4.5-2.67z"/></symbol><symbol viewBox="0 0 24 24" id="search"><path d="M15.5 14h-.79l-.28-.27A6.471 6.471 0 0 0 16 9.5 6.5 6.5 0 1 0 9.5 16c1.61 0 3.09-.59 4.23-1.57l.27.28v.79l5 4.99L20.49 19l-4.99-5zm-6 0C7.01 14 5 11.99 5 9.5S7.01 5 9.5 5 14 7.01 14 9.5 11.99 14 9.5 14z"/><path d="M0 0h24v24H0z" fill="none"/></symbol><symbol viewBox="0 0 100 100" id="sign-language"><path class="ccst1" d="M91.6 83.3l-6 .5-8.6.9s-3 2.4-4.4 3c-1.4.6-3.6 1.8-7.6 2.8-4.1 1.1-11.4 2.5-11.4 2.5l-22.3 4.5s-3.8.6-4.6-2.9c-.8-3.5 3.7-4.7 3.7-4.7s15.3-3.4 15.7-3.5c.5-.2 1.5-.6 1.5-1.5-.1-.8-1.2-.8-1.2-.8s-15.9 2.3-17.9 2.5c-2.1.1-4.5.4-4.5.4s-4.2.6-4.8-2.9c-.6-3.6 3.2-4.3 3.2-4.3s3.1-.6 4.4-.7C28.2 78.9 35 78 35 78l10.2-1.4s.5-.1.8-.4.6-.6.5-.9c-.1-.6-1.5-.9-1.5-.9l-20.8 1.2s-3.4.3-4.3.3-2.2-.1-2.2-.1-3.8-.1-3.5-3.7c.3-3.6 4.8-3.8 4.8-3.8s1.2-.1 3.5-.2 14.9-.7 14.9-.7l6-.4s2.3-.1 2.2-1.2c-.1-1.1-2.1-1.1-2.1-1.1H31.4L20.8 64s-3.8-.3-3.6-3.9 4.4-3.6 4.4-3.6l2.2-.1s26.3.3 26.9.1c.6-.1 1.7-.2 2.3-1.4.6-1.2-.7-2.9-.7-2.9l-6.9-7s-1.7-2-1.8-5.3c-.1-3.4 2.8-4 2.8-4s27.3 19.2 28.2 19.6c.8.3 6.5 1.3 7.5 1.2.9-.1 5.4-.4 5.4-.4s4.2-.1 4.2.3c-.1.4-.1 26.7-.1 26.7z"/><path class="ccst1" d="M81.1 54.2H77l-8.9-5.9-18.7-13.2-1.9-1.2s-1.5-.8-3.1.2-1.8 1.7-1.8 1.7-1.2 2.1-1.3 3.4.3 3.1.5 3.6c.2.4.7 1.7 1.4 2.7.6 1.1 2.1 2.6 2.1 2.6s4.2 4.2 4.5 4.6 1.1 1.4 1.1 1.4h-9.5l-6 .3s-1.3.1-2.8-.2-2.4-.7-2.4-.7l-19.4-8.4s-2.5-1.4-1.6-4.2c.9-2.8 3.6-2.5 3.6-2.5s.8 0 1.6.3 12.1 4.5 12.1 4.5l3.3 1.3s1.7.7 2.2-.3c.5-1-1.6-2-1.6-2l-20.2-9.8s-2.9-2.2-1.3-4.9 4.3-2 4.3-2 1.3.4 1.7.6 9.5 4.9 10.9 5.4c1.4.5 7.8 4 7.8 4s2.1 1.2 2.8.1c.7-1.1-1.8-2.3-1.8-2.3l-22.3-13s-3-2.5-1-5.3 5.2-1.1 5.2-1.1l5.9 3.7 16.4 9.6s1.6.8 2.2-.2-1.3-2.2-1.3-2.2l-6.1-4-12.5-9s-2.4-2.5-.7-5 4.5-1.5 4.5-1.5.7.2 1.2.5c.1.2 1.6 1.4 3.9 2.9 7 4.7 20.7 13.8 20.7 13.8s1.4.4 2.4-.2.9-2.4.9-2.4-.6-4.1-1.2-6c-.5-1.9-.5-5.2-.5-5.2s-.2-2.3 1.7-4.5 3.8-1.6 3.8-1.6l2.5 5.8 9 22.4s2 5.6 2.9 6.3c.2.1.6.5 1.2 1 1.7 1.1 4.7 2.9 4.9 3 .3.2 2.7 2.1 2.7 2.1v11z"/></symbol><symbol viewBox="0 0 24 24" id="smoke-free"><path d="M2 6l6.99 7H2v3h9.99l7 7 1.26-1.25-17-17zm18.5 7H22v3h-1.5zM18 13h1.5v3H18zm.85-8.12c.62-.61 1-1.45 1-2.38h-1.5c0 1.02-.83 1.85-1.85 1.85v1.5c2.24 0 4 1.83 4 4.07V12H22V9.92c0-2.23-1.28-4.15-3.15-5.04zM14.5 8.7h1.53c1.05 0 1.97.74 1.97 2.05V12h1.5v-1.59c0-1.8-1.6-3.16-3.47-3.16H14.5c-1.02 0-1.85-.98-1.85-2s.83-1.75 1.85-1.75V2a3.35 3.35 0 0 0 0 6.7zm2.5 7.23V13h-2.93z"/><path d="M0 0h24v24H0z" fill="none"/></symbol><symbol viewBox="0 0 20 20" id="success"><title>success</title><path d="M10 0C4.48 0 0 4.48 0 10s4.48 10 10 10 10-4.48 10-10S15.52 0 10 0zM8 15l-5-5 1.41-1.41L8 12.17l7.59-7.59L17 6l-9 9z" fill-rule="evenodd"/></symbol><symbol viewBox="0 0 24 24" id="time"><path d="M11.99 2C6.47 2 2 6.48 2 12s4.47 10 9.99 10C17.52 22 22 17.52 22 12S17.52 2 11.99 2zM12 20c-4.42 0-8-3.58-8-8s3.58-8 8-8 8 3.58 8 8-3.58 8-8 8z"/><path d="M0 0h24v24H0z" fill="none"/><path d="M12.5 7H11v6l5.25 3.15.75-1.23-4.5-2.67z"/></symbol><symbol viewBox="0 0 24 24" id="tram"><path d="M19 16.94V8.5c0-2.79-2.61-3.4-6.01-3.49l.76-1.51H17V2H7v1.5h4.75l-.76 1.52C7.86 5.11 5 5.73 5 8.5v8.44c0 1.45 1.19 2.66 2.59 2.97L6 21.5v.5h2.23l2-2H14l2 2h2v-.5L16.5 20h-.08c1.69 0 2.58-1.37 2.58-3.06zm-7 1.56c-.83 0-1.5-.67-1.5-1.5s.67-1.5 1.5-1.5 1.5.67 1.5 1.5-.67 1.5-1.5 1.5zm5-4.5H7V9h10v5z"/><path d="M0 0h24v24H0V0z" fill="none"/></symbol><symbol viewBox="0 0 20 20" id="twitter"><path d="M10 .4C4.698.4.4 4.698.4 10s4.298 9.6 9.6 9.6 9.6-4.298 9.6-9.6S15.302.4 10 .4zm3.905 7.864c.004.082.005.164.005.244 0 2.5-1.901 5.381-5.379 5.381a5.335 5.335 0 0 1-2.898-.85c.147.018.298.025.451.025.886 0 1.701-.301 2.348-.809a1.895 1.895 0 0 1-1.766-1.312 1.9 1.9 0 0 0 .853-.033 1.892 1.892 0 0 1-1.517-1.854v-.023c.255.141.547.227.857.237a1.89 1.89 0 0 1-.585-2.526 5.376 5.376 0 0 0 3.897 1.977 1.891 1.891 0 0 1 3.222-1.725 3.797 3.797 0 0 0 1.2-.459 1.9 1.9 0 0 1-.831 1.047 3.799 3.799 0 0 0 1.086-.299 3.834 3.834 0 0 1-.943.979z"/></symbol><symbol viewBox="0 0 24 24" id="view-comfy"><path d="M3 9h4V5H3v4zm0 5h4v-4H3v4zm5 0h4v-4H8v4zm5 0h4v-4h-4v4zM8 9h4V5H8v4zm5-4v4h4V5h-4zm5 9h4v-4h-4v4zM3 19h4v-4H3v4zm5 0h4v-4H8v4zm5 0h4v-4h-4v4zm5 0h4v-4h-4v4zm0-14v4h4V5h-4z"/><path d="M0 0h24v24H0z" fill="none"/></symbol><symbol viewBox="0 0 24 24" id="warning"><path d="M0 0h24v24H0z" fill="none"/><path d="M1 21h22L12 2 1 21zm12-3h-2v-2h2v2zm0-4h-2v-4h2v4z"/></symbol></svg>