<?xml version="1.0" encoding="utf-8"?><svg width="27.43" height="32" viewBox="0.000000 -3328.000000 1536.000000 1792.000000" xmlns="http://www.w3.org/2000/svg"><path d="M1468-2948c18.667 18.667 34.667 44 48 76 13.333 32 20 61.333 20 88v1152c0 26.667-9.333 49.333-28 68s-41.333 28-68 28H96c-26.667 0-49.333-9.333-68-28s-28-41.333-28-68v-1600c0-26.667 9.333-49.333 28-68s41.333-28 68-28h896c26.667 0 56 6.667 88 20s57.333 29.333 76 48zm-444-244v376h376c-6.667-19.333-14-33-22-41l-313-313c-8-8-21.667-15.333-41-22zm384 1528v-1024H992c-26.667 0-49.333-9.333-68-28s-28-41.333-28-68v-416H128v1536h1280zm-979-234v106h281v-106h-75l103-161c3.333-4.667 6.667-10.167 10-16.5s5.833-10.833 7.5-13.5c1.667-2.667 2.833-4 3.5-4h2c.667 2.667 2.333 6 5 10a55.839 55.839 0 0 0 4.5 7.5c1.667 2.333 3.667 5 6 8s4.5 5.833 6.5 8.5l107 161h-76v106h291v-106h-68l-192-273 195-282h67v-107H828v107h74l-103 159c-2.667 4.667-6 10.167-10 16.5s-7 10.833-9 13.5l-2 3h-2c-.667-2.667-2.333-6-5-10-4-7.333-9.667-15-17-23l-106-159h76v-107H434v107h68l189 272-194 283h-68zm0 0"/></svg>