<?xml version="1.0" encoding="utf-8"?><svg width="27.43" height="32" viewBox="0.000000 -3328.000000 1536.000000 1792.000000" xmlns="http://www.w3.org/2000/svg"><path d="M1468-2948c18.667 18.667 34.667 44 48 76 13.333 32 20 61.333 20 88v1152c0 26.667-9.333 49.333-28 68s-41.333 28-68 28H96c-26.667 0-49.333-9.333-68-28s-28-41.333-28-68v-1600c0-26.667 9.333-49.333 28-68s41.333-28 68-28h896c26.667 0 56 6.667 88 20s57.333 29.333 76 48zm-444-244v376h376c-6.667-19.333-14-33-22-41l-313-313c-8-8-21.667-15.333-41-22zm384 1528v-1024H992c-26.667 0-49.333-9.333-68-28s-28-41.333-28-68v-416H128v1536h1280zm-640-896c34.667 0 64.667 12.667 90 38s38 55.333 38 90v384c0 34.667-12.667 64.667-38 90s-55.333 38-90 38H384c-34.667 0-64.667-12.667-90-38s-38-55.333-38-90v-384c0-34.667 12.667-64.667 38-90s55.333-38 90-38h384zm492 2c13.333 5.333 20 15.333 20 30v576c0 14.667-6.667 24.667-20 30-5.333 1.333-9.333 2-12 2-9.333 0-17-3-23-9l-265-266v-90l265-266c6-6 13.667-9 23-9 2.667 0 6.667.667 12 2zm0 0"/></svg>