<?xml version="1.0" encoding="utf-8"?><svg width="27.43" height="32" viewBox="0.000000 -3328.000000 1536.000000 1792.000000" xmlns="http://www.w3.org/2000/svg"><path d="M640-2944v-128H512v128h128zm128 128v-128H640v128h128zm-128 128v-128H512v128h128zm128 128v-128H640v128h128zm700-388c18.667 18.667 34.667 44 48 76 13.333 32 20 61.333 20 88v1152c0 26.667-9.333 49.333-28 68s-41.333 28-68 28H96c-26.667 0-49.333-9.333-68-28s-28-41.333-28-68v-1600c0-26.667 9.333-49.333 28-68s41.333-28 68-28h896c26.667 0 56 6.667 88 20s57.333 29.333 76 48zm-444-244v376h376c-6.667-19.333-14-33-22-41l-313-313c-8-8-21.667-15.333-41-22zm384 1528v-1024H992c-26.667 0-49.333-9.333-68-28s-28-41.333-28-68v-416H768v128H640v-128H128v1536h1280zm-627-721l107 349c5.333 18 8 35.333 8 52 0 55.333-24.167 101.167-72.5 137.5S714-1792 640-1792s-135.167-18.167-183.5-54.5S384-1928.667 384-1984c0-16.667 2.667-34 8-52 14-42 54-174 120-396v-128h128v128h79c14.667 0 27.667 4.333 39 13 11.333 8.667 19 20 23 34zm-141 465c35.333 0 65.5-6.333 90.5-19s37.5-27.667 37.5-45-12.5-32.333-37.5-45c-25-12.667-55.167-19-90.5-19s-65.5 6.333-90.5 19-37.5 27.667-37.5 45 12.5 32.333 37.5 45c25 12.667 55.167 19 90.5 19zm0 0"/></svg>