<?xml version="1.0" encoding="utf-8"?><svg width="27.43" height="32" viewBox="0.000000 -3328.000000 1536.000000 1792.000000" xmlns="http://www.w3.org/2000/svg"><path d="M1468-2948c18.667 18.667 34.667 44 48 76 13.333 32 20 61.333 20 88v1152c0 26.667-9.333 49.333-28 68s-41.333 28-68 28H96c-26.667 0-49.333-9.333-68-28s-28-41.333-28-68v-1600c0-26.667 9.333-49.333 28-68s41.333-28 68-28h896c26.667 0 56 6.667 88 20s57.333 29.333 76 48zm-444-244v376h376c-6.667-19.333-14-33-22-41l-313-313c-8-8-21.667-15.333-41-22zm384 1528v-1024H992c-26.667 0-49.333-9.333-68-28s-28-41.333-28-68v-416H128v1536h1280zm-788-814c13.333 5.333 20 15.333 20 30v544c0 14.667-6.667 24.667-20 30-5.333 1.333-9.333 2-12 2-8 0-15.667-3-23-9l-166-167H288c-9.333 0-17-3-23-9s-9-13.667-9-23v-192c0-9.333 3-17 9-23s13.667-9 23-9h131l166-167c10.667-10 22.333-12.333 35-7zm417 689c20.667 0 37.333-8 50-24 86-106 129-227 129-363s-43-257-129-363c-10.667-14-25-22-43-24s-33.667 2.667-47 14c-14 11.333-21.833 25.833-23.5 43.5-1.667 17.667 3.167 33.5 14.5 47.5 66.667 82 100 176 100 282s-33.333 200-100 282c-11.333 14-16.167 29.833-14.5 47.5 1.667 17.667 9.5 31.833 23.5 42.5 12 10 25.333 15 40 15zm-211-148c18 0 33.667-6.667 47-20 58-62 87-135 87-219s-29-157-87-219c-12-12.667-27-19.333-45-20-18-.667-33.333 5-46 17-12.667 12-19.333 26.833-20 44.5-.667 17.667 5.333 33.167 18 46.5 34.667 38 52 81.667 52 131s-17.333 93-52 131c-12.667 13.333-18.667 28.833-18 46.5.667 17.667 7.333 32.5 20 44.5 13.333 11.333 28 17 44 17zm0 0"/></svg>