<?xml version="1.0" encoding="utf-8"?><svg width="27.43" height="32" viewBox="0.000000 -3328.000000 1536.000000 1792.000000" xmlns="http://www.w3.org/2000/svg"><path d="M1468-2948c18.667 18.667 34.667 44 48 76 13.333 32 20 61.333 20 88v1152c0 26.667-9.333 49.333-28 68s-41.333 28-68 28H96c-26.667 0-49.333-9.333-68-28s-28-41.333-28-68v-1600c0-26.667 9.333-49.333 28-68s41.333-28 68-28h896c26.667 0 56 6.667 88 20s57.333 29.333 76 48zm-444-244v376h376c-6.667-19.333-14-33-22-41l-313-313c-8-8-21.667-15.333-41-22zm384 1528v-1024H992c-26.667 0-49.333-9.333-68-28s-28-41.333-28-68v-416H128v1536h1280zm-992-234v106h327v-106h-93v-167h137c50.667 0 90-5 118-15 44.667-15.333 80.167-44.333 106.5-87s39.5-91.333 39.5-146c0-54-12.333-101-37-141s-58-69-100-87c-32-12.667-75.333-19-130-19H416v107h92v555h-92zm353-280H650v-268h120c34.667 0 62.333 6 83 18 37.333 22 56 60.333 56 115 0 59.333-20.667 99.333-62 120-20.667 10-46.667 15-78 15zm0 0"/></svg>