<svg xmlns="http://www.w3.org/2000/svg" style="width:0; height:0; visibility:hidden;">
    <symbol id="accessible" viewBox="0 0 506 648">
      <title>accessible</title><path d="M494.556 293.574a38.5 38.5 0 0 0-29.656-11.55l-133.98 7.46 73.732-83.976c10.504-11.962 13.505-27.908 9.444-42.157-2.143-9.762-8.056-18.646-17.14-24.322-.28-.2-176.247-102.423-176.247-102.423-14.37-8.347-32.477-6.508-44.877 4.552l-85.958 76.676c-15.837 14.126-17.224 38.416-3.097 54.254 14.127 15.836 38.418 17.227 54.254 3.096l65.168-58.13 53.874 31.284L164.98 256.64c-39.433 6.432-74.913 24.603-102.765 50.802l49.66 49.66c22.45-20.412 52.256-32.87 84.918-32.87 69.667 0 126.346 56.68 126.346 126.347 0 32.66-12.46 62.465-32.87 84.914l49.656 49.66c33.08-35.166 53.382-82.484 53.382-134.576 0-31.036-7.206-60.385-20.017-86.483l51.86-2.89-12.614 154.75c-1.725 21.153 14.027 39.696 35.18 41.423 1.06.086 2.116.127 3.163.127 19.806 0 36.62-15.22 38.257-35.306l16.193-198.685a38.42 38.42 0 0 0-10.774-29.942zm-71.172-164.61c35.523 0 64.317-28.796 64.317-64.32C487.7 29.12 458.91.32 423.386.32c-35.527 0-64.323 28.8-64.323 64.323 0 35.525 28.796 64.322 64.324 64.322zm-226.59 447.962c-69.668 0-126.348-56.68-126.348-126.348 0-26.256 8.056-50.66 21.817-70.887l-50.196-50.193C15.912 362.873.277 404.89.277 450.577c0 108.536 87.982 196.518 196.517 196.518 45.69 0 87.703-15.636 121.08-41.792l-50.196-50.193c-20.226 13.757-44.63 21.816-70.884 21.816z" fill-rule="evenodd"/>
    </symbol>
    <symbol id="error" viewBox="0 0 20 20">
      <title>error</title><path d="M10 0C4.48 0 0 4.48 0 10s4.48 10 10 10 10-4.48 10-10S15.52 0 10 0zm1 15H9v-2h2v2zm0-4H9V5h2v6z" fill-rule="evenodd"/>
    </symbol>
    <symbol id="ic_brightness_medium_white_24px" viewBox="0 0 24 24">
      <path d="M0 0h24v24H0z" fill="none"/><path d="M20 15.31L23.31 12 20 8.69V4h-4.69L12 .69 8.69 4H4v4.69L.69 12 4 15.31V20h4.69L12 23.31 15.31 20H20v-4.69zM12 18V6c3.31 0 6 2.69 6 6s-2.69 6-6 6z"/>
    </symbol>
    <symbol id="ic_close_white_24px" viewBox="0 0 24 24">
      <path d="M19 6.41L17.59 5 12 10.59 6.41 5 5 6.41 10.59 12 5 17.59 6.41 19 12 13.41 17.59 19 19 17.59 13.41 12z"/><path d="M0 0h24v24H0z" fill="none"/>
    </symbol>
    <symbol id="ic_hearing_white_24px" viewBox="0 0 24 24">
      <path d="M17 20c-.29 0-.56-.06-.76-.15-.71-.37-1.21-.88-1.71-2.38-.51-1.56-1.47-2.29-2.39-3-.79-.61-1.61-1.24-2.32-2.53C9.29 10.98 9 9.93 9 9c0-2.8 2.2-5 5-5s5 2.2 5 5h2c0-3.93-3.07-7-7-7S7 5.07 7 9c0 1.26.38 2.65 1.07 3.9.91 1.65 1.98 2.48 2.85 3.15.81.62 1.39 1.07 1.71 2.05.6 1.82 1.37 2.84 2.73 3.55A4 4 0 0 0 21 18h-2c0 1.1-.9 2-2 2zM7.64 2.64L6.22 1.22C4.23 3.21 3 5.96 3 9s1.23 5.79 3.22 7.78l1.41-1.41C6.01 13.74 5 11.49 5 9s1.01-4.74 2.64-6.36zM11.5 9a2.5 2.5 0 0 0 5 0 2.5 2.5 0 0 0-5 0z"/><path d="M0 0h24v24H0z" fill="none"/>
    </symbol>
    <symbol id="ic_home_white_24px" viewBox="0 0 24 24">
      <path d="M10 20v-6h4v6h5v-8h3L12 3 2 12h3v8z"/><path d="M0 0h24v24H0z" fill="none"/>
    </symbol>
    <symbol id="ic_info_outline_white_24px" viewBox="0 0 24 24">
      <path d="M0 0h24v24H0z" fill="none"/><path d="M11 17h2v-6h-2v6zm1-15C6.48 2 2 6.48 2 12s4.48 10 10 10 10-4.48 10-10S17.52 2 12 2zm0 18c-4.41 0-8-3.59-8-8s3.59-8 8-8 8 3.59 8 8-3.59 8-8 8zM11 9h2V7h-2v2z"/>
    </symbol>
    <symbol id="ic_list_black_24px" viewBox="0 0 24 24">
      <path d="M3 13h2v-2H3v2zm0 4h2v-2H3v2zm0-8h2V7H3v2zm4 4h14v-2H7v2zm0 4h14v-2H7v2zM7 7v2h14V7H7z"/><path d="M0 0h24v24H0z" fill="none"/>
    </symbol>
    <symbol id="ic_menu_white_24px" viewBox="0 0 24 24">
      <path d="M0 0h24v24H0z" fill="none"/><path d="M3 18h18v-2H3v2zm0-5h18v-2H3v2zm0-7v2h18V6H3z"/>
    </symbol>
    <symbol id="ic_phone_iphone_white_24px" viewBox="0 0 24 24">
      <path d="M15.5 1h-8A2.5 2.5 0 0 0 5 3.5v17A2.5 2.5 0 0 0 7.5 23h8a2.5 2.5 0 0 0 2.5-2.5v-17A2.5 2.5 0 0 0 15.5 1zm-4 21c-.83 0-1.5-.67-1.5-1.5s.67-1.5 1.5-1.5 1.5.67 1.5 1.5-.67 1.5-1.5 1.5zm4.5-4H7V4h9v14z"/><path d="M0 0h24v24H0z" fill="none"/>
    </symbol>
    <symbol id="ic_public_white_24px" viewBox="0 0 24 24">
      <path d="M0 0h24v24H0z" fill="none"/><path d="M12 2C6.48 2 2 6.48 2 12s4.48 10 10 10 10-4.48 10-10S17.52 2 12 2zm-1 17.93c-3.95-.49-7-3.85-7-7.93 0-.62.08-1.21.21-1.79L9 15v1c0 1.1.9 2 2 2v1.93zm6.9-2.54c-.26-.81-1-1.39-1.9-1.39h-1v-3c0-.55-.45-1-1-1H8v-2h2c.55 0 1-.45 1-1V7h2c1.1 0 2-.9 2-2v-.41c2.93 1.19 5 4.06 5 7.41 0 2.08-.8 3.97-2.1 5.39z"/>
    </symbol>
    <symbol id="ic_search_white_24px" viewBox="0 0 24 24">
      <path d="M15.5 14h-.79l-.28-.27A6.47 6.47 0 0 0 16 9.5 6.5 6.5 0 1 0 9.5 16c1.61 0 3.09-.59 4.23-1.57l.27.28v.79l5 4.99L20.49 19l-4.99-5zm-6 0C7.01 14 5 11.99 5 9.5S7.01 5 9.5 5 14 7.01 14 9.5 11.99 14 9.5 14z"/><path d="M0 0h24v24H0z" fill="none"/>
    </symbol>
    <symbol id="ic_subject_black_24px" viewBox="0 0 24 24">
      <path d="M14 17H4v2h10v-2zm6-8H4v2h16V9zM4 15h16v-2H4v2zM4 5v2h16V5H4z"/><path d="M0 0h24v24H0z" fill="none"/>
    </symbol>
    <symbol id="info" viewBox="0 0 20 20">
      <title>info</title><path d="M10 0C4.48 0 0 4.48 0 10s4.48 10 10 10 10-4.48 10-10S15.52 0 10 0zm1 15H9V9h2v6zm0-8H9V5h2v2z" fill-rule="evenodd"/>
    </symbol>
    <symbol id="success" viewBox="0 0 20 20">
      <title>success</title><path d="M10 0C4.48 0 0 4.48 0 10s4.48 10 10 10 10-4.48 10-10S15.52 0 10 0zM8 15l-5-5 1.41-1.41L8 12.17l7.59-7.59L17 6l-9 9z" fill-rule="evenodd"/>
    </symbol>
    <symbol id="warning" viewBox="0 0 22 19">
      <title>warning</title><path d="M0 19h22L11 0 0 19zm12-3h-2v-2h2v2zm0-4h-2V8h2v4z" fill-rule="evenodd"/>
    </symbol></svg>