<?xml version="1.0" encoding="utf-8"?>
<!-- Generator: Adobe Illustrator 22.0.1, SVG Export Plug-In . SVG Version: 6.00 Build 0)  -->
<svg version="1.1" id="Lager_1" xmlns="http://www.w3.org/2000/svg" xmlns:xlink="http://www.w3.org/1999/xlink" x="0px" y="0px"
	 viewBox="0 0 160 33" style="enable-background:new 0 0 160 33;" xml:space="preserve">
<style type="text/css">
	.st0{fill:none;}
	.st1{fill:#006298;}
	.st2{fill:#4A773C;}
</style>
<title>logotype</title>
<g>
	<path class="st0" d="M94.8,20.3c0-1.2-0.7-2.8-2.7-2.8h-0.9v5.8H92C94.2,23.2,94.8,21.7,94.8,20.3z M107.8,18.7
		c0-0.5-0.3-1.2-1.2-1.2h-0.5v2.6h0.5C107.1,20.1,107.8,19.7,107.8,18.7z M47,8.7c0,0-0.7,1.6-0.9,2.4h2C47.5,10,47,8.7,47,8.7z
		 M71.4,11.1h2c-0.5-1.1-1-2.4-1-2.4S71.6,10.4,71.4,11.1z M63.4,18.9c0,0-0.7,1.7-1,2.5h2C63.9,20.2,63.4,18.9,63.4,18.9z
		 M48.2,20.2c0,2.1,1.1,3.1,2.3,3.1c1.3,0,2.2-1,2.2-2.8c0-1.9-0.9-3.1-2.2-3.1C49.1,17.4,48.2,18.4,48.2,20.2L48.2,20.2z
		 M136.4,20.4c0-1.9-0.9-3.1-2.2-3.1c-1.3,0-2.3,1-2.3,2.8c0,2.1,1.1,3.1,2.3,3.1C135.5,23.2,136.4,22.2,136.4,20.4L136.4,20.4z
		 M75.4,21.3h2c-0.5-1.1-1-2.5-1-2.5S75.7,20.6,75.4,21.3L75.4,21.3z M66.3,8.5c0-0.5-0.3-1.2-1.2-1.2h-0.5v2.6h0.4
		C65.6,9.8,66.3,9.5,66.3,8.5L66.3,8.5z"/>
	<path class="st1" d="M8,12.2c0,0.7,0.1,1.4,0.1,2L0,0h16.7C11.6,1.7,8,6.5,8,12.2z"/>
	<path class="st2" d="M25.3,21.8L18.9,33l-6.4-11.2c1.8,1.3,4,2.1,6.4,2.1C21.2,23.9,23.5,23.2,25.3,21.8z"/>
	<path d="M49.4,15.3C49.4,15.3,49.4,15.3,49.4,15.3c-0.3,0-0.5,0.2-0.5,0.5c0,0,0,0,0,0c0,0.3,0.2,0.5,0.5,0.5
		c0.3,0,0.5-0.1,0.5-0.5C49.9,15.6,49.7,15.3,49.4,15.3z M51.5,15.3C51.5,15.3,51.5,15.3,51.5,15.3c-0.3,0-0.5,0.2-0.5,0.5
		c0,0,0,0,0,0c0,0.3,0.2,0.5,0.5,0.5s0.5-0.2,0.5-0.5C52,15.6,51.8,15.3,51.5,15.3z M50.5,16.9c-2.3-0.1-3.7,1.7-3.7,3.4
		c-0.1,2.1,1.6,3.5,3.6,3.6c1.8,0,3.7-1.2,3.7-3.4C54.1,18.2,52.2,16.9,50.5,16.9z M52.7,20.4c0,1.8-0.9,2.8-2.2,2.8
		c-1.1,0-2.2-0.8-2.3-2.7c0-0.1,0-0.3,0-0.4c0-0.1,0-0.2,0-0.3c0-0.1,0-0.2,0-0.3c0,0,0-0.1,0-0.1c0.2-1.4,1.1-2.2,2.2-2.2
		c1.1,0,2,0.9,2.2,2.5c0,0.1,0,0.2,0,0.3C52.7,20.2,52.7,20.3,52.7,20.4L52.7,20.4z M158.7,16.8c0.1,0.2,0.3,0.3,0.3,0.5v3.9
		l-3.6-4.4h-1.7c0.2,0.1,0.3,0.3,0.5,0.4c0.2,0.2,0.2,0.2,0.2,0.6v5.3c0,0.2-0.1,0.3-0.3,0.5h1.1c-0.1-0.1-0.3-0.2-0.3-0.5v-5
		c0,0.1,4.7,5.7,4.7,5.7v-6.6c0-0.2,0.1-0.3,0.3-0.5H158.7z M150.4,23.2c-0.5,0-1.1,0-1.3-0.1v-3h1.5c0.1,0,0.3,0.1,0.3,0.3v-1
		c-0.1,0.1-0.2,0.3-0.3,0.3h-1.4v-2.3h1.7c0.4,0,0.6,0.1,0.7,0.3v-0.9h-3.9c0.1,0.1,0.3,0.2,0.3,0.5v5.9c-0.1,0.3-0.1,0.4-0.3,0.5
		h4.2l0.2-1.2C151.7,23.2,151.3,23.2,150.4,23.2z M144.4,16.9c0.1,0.1,0.3,0.2,0.3,0.5v3.9L141,17h-1.7c0.2,0.1,0.3,0.3,0.5,0.4
		c0.2,0.2,0.2,0.2,0.2,0.6v5.3c0,0.2-0.1,0.3-0.3,0.5h1.1c-0.1-0.1-0.3-0.2-0.3-0.5v-5c0,0.1,4.7,5.7,4.7,5.7v-6.6
		c0-0.2,0.1-0.3,0.3-0.5H144.4z M134.2,16.8c-2.4,0-3.7,1.7-3.7,3.4c-0.1,2.1,1.6,3.5,3.6,3.6c1.8,0,3.7-1.2,3.7-3.5
		C137.8,18.1,135.9,16.8,134.2,16.8z M136.4,20.8c-0.1,1.6-1,2.6-2.2,2.6c-1-0.1-2-0.8-2.2-2.4c0-0.2,0-0.4,0-0.7c0-0.1,0-0.2,0-0.3
		c0.1-1.6,1.1-2.5,2.3-2.5c0.8,0,1.4,0.4,1.8,1.2c0,0.1,0.1,0.2,0.1,0.3c0.1,0.4,0.2,0.8,0.2,1.2c0,0.1,0,0.3,0,0.4
		C136.4,20.6,136.4,20.7,136.4,20.8z M128.2,23.2v-5.9c0-0.2,0.1-0.3,0.3-0.5h-1.8c0.1,0.1,0.3,0.2,0.3,0.5v5.9
		c0,0.3-0.1,0.4-0.3,0.5h1.8C128.3,23.7,128.2,23.5,128.2,23.2z M124.2,22.6v-1.5c0-0.2,0.1-0.3,0.3-0.5h-1.8
		c0.1,0.1,0.3,0.2,0.3,0.5v1.7c-0.4,0.2-0.8,0.3-1.2,0.3c-2,0-2.7-1.7-2.7-3c0-1.6,0.9-2.8,2.6-2.8c0.5,0,1.7,0.2,2.2,1.6l-0.1-1.6
		c-0.7-0.3-1.5-0.5-2.3-0.5c-2.5,0-3.8,1.8-3.8,3.5c0,2.1,1.8,3.4,3.6,3.4c0.8,0,2.2-0.3,3-0.8C124.3,23,124.2,22.8,124.2,22.6z
		 M114.8,23.2c-0.5,0-1.1,0-1.3-0.1v-3h1.5c0.1,0,0.3,0.1,0.3,0.3v-1c-0.1,0.1-0.2,0.3-0.3,0.3h-1.5v-2.3h1.7c0.4,0,0.6,0.1,0.8,0.3
		v-0.9H112c0.1,0.1,0.3,0.2,0.3,0.5v5.9c0,0.3-0.1,0.4-0.3,0.5h4.2l0.2-1.2C116,23.2,115.7,23.2,114.8,23.2z M110,23.3
		c-0.3-0.4-1.5-2.3-1.5-2.3c-0.1-0.2-0.5-0.7-1.1-0.8c0.7-0.1,1.7-0.6,1.7-1.7c0-0.7-0.5-1.7-2.5-1.7h-2.1c0.1,0.1,0.3,0.2,0.3,0.5
		v5.9c-0.1,0.1-0.1,0.3-0.3,0.3h1.8c-0.1-0.1-0.3-0.2-0.3-0.5v-2.8h0.4c0.4,0,0.7,0.4,0.9,0.8c0.3,0.5,0.8,1.3,1.2,1.9
		c0.2,0.2,0.5,0.5,0.9,0.5h1.3C110.7,23.7,110.2,23.6,110,23.3z M105.9,20.1v-2.6h0.6c0.9,0,1.2,0.8,1.2,1.2c0,1-0.7,1.4-1.3,1.4
		H105.9z M100.5,19.7c-1-0.4-1.4-0.7-1.4-1.2c0-0.4,0.3-1,1-1c0.9,0,1.5,0.8,1.6,1.3l-0.1-1.5c-0.5-0.3-1.1-0.3-1.5-0.3
		c-0.9,0-2.2,0.6-2.2,1.9c0,0.8,0.4,1.3,1.3,1.8s1.8,0.6,1.8,1.6c0.1,0.3-0.2,1-1.1,1c-1,0-1.6-1-1.8-1.7l0.1,1.7
		c0.3,0.1,1,0.5,1.9,0.5c1.2,0,2.3-0.8,2.3-2.1C102.3,20.4,101.4,20.1,100.5,19.7z M92.3,16.9h-2.6c0.1,0.1,0.3,0.2,0.3,0.5v5.9
		c0,0.2-0.1,0.3-0.3,0.4h2.5c2.6,0,4-1.8,4-3.5C96.1,19.2,95.5,16.9,92.3,16.9z M91.1,23.2v-5.8H92c0.1,0,0.2,0,0.4,0
		c1.7,0.2,2.3,1.6,2.3,2.8c0,1.4-0.6,3-2.8,3H91.1z M86.1,16.9c0.1,0.1,0.3,0.2,0.3,0.5v3.9L82.7,17H81c0.2,0.1,0.3,0.3,0.5,0.4
		c0.2,0.2,0.2,0.2,0.2,0.6v5.3c0,0.2-0.1,0.3-0.3,0.5h1.1c-0.1-0.1-0.3-0.2-0.3-0.5v-5c0,0.1,4.7,5.7,4.7,5.7v-6.6
		c0-0.2,0.1-0.3,0.3-0.5H86.1z M77.9,23.7H80c-0.3-0.1-0.4-0.3-0.5-0.5c-0.2-0.4-2.8-6.5-2.8-6.5s-2.6,6.1-2.8,6.5
		c-0.1,0.2-0.2,0.3-0.5,0.5h1.3c-0.3-0.1-0.3-0.3-0.2-0.5c0-0.1,0.3-0.7,0.5-1.4h2.4c0.3,0.7,0.5,1.3,0.5,1.4
		C78.2,23.4,78.2,23.6,77.9,23.7z M75.4,21.3c0.3-0.7,0.8-2,1-2.4c0-0.1,0-0.1,0-0.1s0.5,1.3,1,2.5H75.4z M71,23.2
		c-0.5,0-0.9-0.1-1.1-0.1v-5.8c0-0.2,0.1-0.3,0.3-0.5h-1.8c0.2,0.1,0.3,0.3,0.3,0.5v5.9c0,0.2-0.1,0.3-0.3,0.5h4.1l0.2-1.2
		C72.4,23.2,72,23.2,71,23.2z M67,23.7c-0.3-0.1-0.4-0.3-0.5-0.5c-0.2-0.4-2.8-6.5-2.8-6.5s-2.6,6.1-2.8,6.5
		c-0.1,0.2-0.3,0.3-0.5,0.5h1.4c-0.3-0.1-0.3-0.3-0.2-0.5c0-0.1,0.3-0.7,0.5-1.4h2.4c0.3,0.7,0.5,1.3,0.5,1.4c0.1,0.2,0,0.3-0.2,0.5
		H67z M62.5,21.4c0.1-0.4,0.4-1.2,0.6-1.7c0.2-0.4,0.3-0.8,0.3-0.8s0,0.1,0,0.1c0.2,0.4,0.6,1.4,1,2.3H62.5z M54.8,17v1h0.1
		c0.1-0.1,0.3-0.4,0.5-0.4c0,0,0.8-0.1,1.5-0.1v5.8c0,0.2-0.1,0.3-0.3,0.5h1.8c-0.1-0.1-0.3-0.2-0.3-0.5v-5.8c0.7,0,1.6,0.1,1.6,0.1
		c0.2,0,0.4,0.2,0.5,0.4v-1H54.8z M45,22.6v-1.5c0-0.2,0.1-0.3,0.3-0.5h-1.8c0.1,0.1,0.3,0.2,0.3,0.5v1.7c-0.4,0.2-0.8,0.3-1.2,0.3
		c-2,0-2.7-1.7-2.7-3c0-1.6,1-2.8,2.6-2.8c0.5,0,1.7,0.2,2.2,1.6l-0.1-1.6c-0.7-0.3-1.5-0.5-2.3-0.5c-2.6,0-3.9,1.8-3.9,3.5
		c0,2.1,1.8,3.4,3.7,3.4c0.8,0,2.2-0.3,3-0.8C45,23,45,22.8,45,22.6z M46.3,5.2L46.3,5.2c-0.3,0-0.5,0.2-0.5,0.5v0
		c0,0.3,0.2,0.5,0.5,0.5s0.5-0.2,0.5-0.5C46.7,5.4,46.5,5.2,46.3,5.2z M50.6,13.5c-0.3-0.1-0.4-0.3-0.5-0.5
		c-0.2-0.3-2.8-6.5-2.8-6.5s-2.6,6-2.8,6.5c-0.1,0.2-0.2,0.3-0.5,0.5h1.3c-0.3-0.1-0.3-0.3-0.2-0.5c0-0.1,0.3-0.7,0.5-1.4h2.4
		c0.3,0.7,0.5,1.3,0.5,1.4c0.1,0.2,0,0.4-0.2,0.5H50.6z M46,11.1l0.1-0.3l0.7-1.8L47,8.7c0,0,0,0.1,0.1,0.4c0.2,0.5,0.5,1.3,0.9,2.1
		H46z M48.4,5.2L48.4,5.2c-0.3,0-0.5,0.2-0.5,0.5v0c0,0.3,0.2,0.5,0.5,0.5c0.3,0,0.5-0.2,0.5-0.5C48.9,5.4,48.7,5.2,48.4,5.2z
		 M76,13.5c-0.3-0.1-0.4-0.3-0.5-0.5c-0.2-0.3-2.8-6.5-2.8-6.5s-2.6,6-2.8,6.5c-0.1,0.2-0.2,0.3-0.5,0.5h1.4
		c-0.3-0.1-0.3-0.3-0.2-0.5c0-0.1,0.3-0.7,0.5-1.4h2.4c0.3,0.7,0.5,1.3,0.5,1.4c0.1,0.2,0,0.4-0.2,0.5H76z M71.4,11.1
		c0.3-0.6,0.7-1.8,0.9-2.2c0-0.1,0.1-0.2,0.1-0.2s0.5,1.3,1,2.4H71.4z M68.5,13.1c-0.3-0.4-1.5-2.3-1.5-2.3
		c-0.1-0.2-0.4-0.7-1.1-0.8c0.7-0.1,1.6-0.5,1.6-1.6c0-0.7-0.5-1.7-2.5-1.7H63c0.1,0.1,0.3,0.2,0.3,0.4v5.8c0,0.2-0.1,0.3-0.3,0.4
		h1.8c-0.2-0.1-0.3-0.2-0.3-0.4v-2.8h0.4c0.4,0,0.6,0.4,0.9,0.8c0.3,0.5,0.8,1.3,1.2,1.9c0.2,0.2,0.5,0.5,0.9,0.5h1.3
		C69.1,13.5,68.7,13.4,68.5,13.1z M64.9,9.9h-0.4V7.3H65c1,0,1.2,0.8,1.2,1.2c0,0.3,0,0.5-0.1,0.6c0,0.1,0,0.1-0.1,0.2
		C65.8,9.8,65.3,9.9,64.9,9.9z M56.4,6.7v1c0.1-0.1,0.3-0.4,0.5-0.4c0,0,0.8-0.1,1.6-0.1v5.8c0,0.2-0.1,0.3-0.3,0.4H60
		c-0.2-0.1-0.3-0.2-0.3-0.4V7.3c0.7,0,1.6,0.1,1.6,0.1c0.2,0,0.3,0.2,0.5,0.4v-1H56.4z M53.9,9.3c-0.9-0.4-1.3-0.6-1.3-1.2
		c0-0.4,0.3-1,1-1c0.9,0,1.5,0.8,1.6,1.3L55.1,7c-0.5-0.3-1.2-0.3-1.5-0.3c-0.9,0-2.1,0.5-2.1,1.9c0,0.8,0.4,1.3,1.3,1.8
		c0.9,0.5,1.8,0.6,1.8,1.6c-0.1,0.5-0.3,1.2-1.3,1.2c-1,0-1.6-1-1.8-1.7l0.1,1.7c0.3,0.1,1,0.5,1.9,0.5c1.2,0,2.2-0.8,2.2-2.1
		C55.7,10.1,54.8,9.8,53.9,9.3z M42.8,6.7c0.3,0.1,0.3,0.2,0.2,0.5c0,0.1-1.5,4.2-1.5,4.2s-1.6-4-1.6-4.1c0-0.2,0-0.4,0.3-0.5h-2.2
		c0.3,0.1,0.4,0.3,0.5,0.5c0.2,0.3,2.7,6.5,2.7,6.5s2.4-6,2.5-6.5C43.8,7,43.8,6.9,44,6.7H42.8z"/>
	<path class="st2" d="M29.7,14.1c0.1-0.3,0.1-0.8,0.1-1.1c0-3.6-2.9-6.6-6.5-6.6c-1.6,0-3,0.6-4.2,1.6C19,8,18.9,8.1,18.8,8.2
		c2.6,0,4.6,2.1,4.6,4.7c0,2.5-1.9,4.5-4.3,4.7h-0.5c-2.2-0.1-4.1-1.4-5.1-3.2c-0.1-0.1-0.2-0.3-0.3-0.5c-0.5-1.2-0.8-2.5-0.8-4
		c0-3.1,2-9.8,10.5-9.8h14.9L29.7,14.1z"/>
</g>
</svg>
