<?xml version="1.0" encoding="UTF-8" standalone="no"?>
<svg width="555px" height="477px" viewBox="0 0 555 477" version="1.1" xmlns="http://www.w3.org/2000/svg" xmlns:xlink="http://www.w3.org/1999/xlink">
    <!-- Generator: Sketch 3.6.1 (26313) - http://www.bohemiancoding.com/sketch -->
    <title>decorative</title>
    <desc>Created with Sketch.</desc>
    <defs></defs>
    <g id="Page-1" stroke="none" stroke-width="1" fill="none" fill-rule="evenodd" opacity="0.24">
        <g id="decorative" fill="#FFFFFF">
            <path d="M117,176.1 C117,94 170.9,24.5 245.2,0.9 L0.5,0.9 L119.2,204.3 C117.7,195.1 117,185.7 117,176.1 L117,176.1 L117,176.1 Z" id="Shape"></path>
            <path d="M277.7,345.6 C242.4,345.6 209.8,334 183.4,314.5 L277.7,476.1 L372,314.5 C345.6,334 313,345.6 277.7,345.6 L277.7,345.6 L277.7,345.6 Z" id="Shape"></path>
            <path d="M554.9,0.9 L336.8,0.9 C212.6,0.9 182.9,97.4 182.9,142.7 C182.9,163 187.2,182.3 194.9,199.8 C196.1,202.2 197.3,204.5 198.4,206.8 C213.2,233.7 241.3,252.2 273.9,253.5 L273.9,253.5 L273.9,253.5 L273.9,253.5 C275.2,253.6 276.4,253.6 277.7,253.6 C278.9,253.6 280,253.6 281.1,253.5 C316.5,251.7 344.6,222.5 344.6,186.6 C344.6,149.7 314.7,119.7 277.8,119.6 C279,118.5 280.3,117.4 281.5,116.3 C298,102.3 319.4,93.8 342.8,93.8 C395.1,93.8 437.6,136.2 437.6,188.6 C437.6,193.9 437.2,199 436.3,204 L554.9,0.9 L554.9,0.9 L554.9,0.9 Z" id="Shape"></path>
        </g>
    </g>
</svg>