<?xml version="1.0" encoding="UTF-8" standalone="no"?>
<svg width="42px" height="36px" viewBox="0 0 42 36" version="1.1" xmlns="http://www.w3.org/2000/svg" xmlns:xlink="http://www.w3.org/1999/xlink" xmlns:sketch="http://www.bohemiancoding.com/sketch/ns">
    <!-- Generator: Sketch 3.4.2 (15855) - http://www.bohemiancoding.com/sketch -->
    <title>crest</title>
    <desc>Created with Sketch.</desc>
    <defs></defs>
    <g id="Page-1" stroke="none" stroke-width="1" fill="none" fill-rule="evenodd" sketch:type="MSPage">
        <g id="crest" sketch:type="MSLayerGroup" fill="#FFFFFF">
            <path d="M8.9329,13.2459 C8.9329,7.0449 13.0009,1.7949 18.6129,0.0159 L0.1339,0.0159 L9.0959,15.3799 C8.9889,14.6839 8.9329,13.9719 8.9329,13.2459" id="Fill-1" sketch:type="MSShapeGroup"></path>
            <path d="M21.0702,26.0479 C18.4032,26.0479 15.9402,25.1749 13.9502,23.7009 L21.0702,35.9069 L28.1902,23.7009 C26.2002,25.1749 23.7372,26.0479 21.0702,26.0479" id="Fill-4" sketch:type="MSShapeGroup"></path>
            <path d="M42.0067,0.0157 L25.5317,0.0157 C16.1517,0.0157 13.9137,7.3047 13.9137,10.7277 C13.9137,12.2617 14.2367,13.7197 14.8177,15.0397 C14.9067,15.2187 14.9957,15.3947 15.0817,15.5657 C16.2007,17.5987 18.3257,18.9987 20.7857,19.0957 L20.7857,19.0947 C20.7847,19.0947 20.7847,19.0937 20.7837,19.0937 C20.8787,19.0987 20.9737,19.1017 21.0707,19.1017 C21.1577,19.1017 21.2437,19.0987 21.3307,19.0957 C24.0027,18.9597 26.1277,16.7507 26.1277,14.0457 C26.1277,11.2557 23.8677,8.9937 21.0787,8.9887 C21.1707,8.9037 21.2647,8.8217 21.3617,8.7427 C22.6097,7.6837 24.2237,7.0447 25.9877,7.0447 C29.9417,7.0447 33.1467,10.2497 33.1467,14.2027 C33.1467,14.5997 33.1127,14.9887 33.0507,15.3687 L42.0067,0.0157 Z" id="Fill-6" sketch:type="MSShapeGroup"></path>
        </g>
    </g>
</svg>