<?xml version="1.0" encoding="utf-8"?><svg width="27.43" height="32" viewBox="0.000000 -3328.000000 1536.000000 1792.000000" xmlns="http://www.w3.org/2000/svg"><path d="M1468-2948c18.667 18.667 34.667 44 48 76 13.333 32 20 61.333 20 88v1152c0 26.667-9.333 49.333-28 68s-41.333 28-68 28H96c-26.667 0-49.333-9.333-68-28s-28-41.333-28-68v-1600c0-26.667 9.333-49.333 28-68s41.333-28 68-28h896c26.667 0 56 6.667 88 20s57.333 29.333 76 48zm-444-244v376h376c-6.667-19.333-14-33-22-41l-313-313c-8-8-21.667-15.333-41-22zm384 1528v-1024H992c-26.667 0-49.333-9.333-68-28s-28-41.333-28-68v-416H128v1536h1280zm-128-448v320H256v-192l192-192 128 128 384-384zm-832-192c-53.333 0-98.667-18.667-136-56s-56-82.667-56-136 18.667-98.667 56-136 82.667-56 136-56 98.667 18.667 136 56 56 82.667 56 136-18.667 98.667-56 136-82.667 56-136 56zm0 0"/></svg>