<?xml version="1.0" encoding="utf-8"?><svg width="27.43" height="32" viewBox="0.000000 -3328.000000 1536.000000 1792.000000" xmlns="http://www.w3.org/2000/svg"><path d="M1468-2948c18.667 18.667 34.667 44 48 76 13.333 32 20 61.333 20 88v1152c0 26.667-9.333 49.333-28 68s-41.333 28-68 28H96c-26.667 0-49.333-9.333-68-28s-28-41.333-28-68v-1600c0-26.667 9.333-49.333 28-68s41.333-28 68-28h896c26.667 0 56 6.667 88 20s57.333 29.333 76 48zm-444-244v376h376c-6.667-19.333-14-33-22-41l-313-313c-8-8-21.667-15.333-41-22zm384 1528v-1024H992c-26.667 0-49.333-9.333-68-28s-28-41.333-28-68v-416H128v1536h1280zm-514-593c22 17.333 50 36 84 56 39.333-4.667 78.333-7 117-7 98 0 157 16.333 177 49 10.667 14.667 11.333 32 2 52 0 .667-.333 1.333-1 2l-2 2v1c-4 25.333-27.667 38-71 38-32 0-70.333-6.667-115-20s-88-31-130-53c-147.333 16-278 43.667-392 83-102 174.667-182.667 262-242 262-10 0-19.333-2.333-28-7l-24-12c-.667-.667-2.667-2.333-6-5-6.667-6.667-8.667-18.667-6-36 6-26.667 24.667-57.167 56-91.5s75.333-66.5 132-96.5c9.333-6 17-4 23 6 1.333 1.333 2 2.667 2 4 34.667-56.667 70.333-122.333 107-197 45.333-90.667 80-178 104-262-16-54.667-26.167-107.833-30.5-159.5-4.333-51.667-2.167-94.167 6.5-127.5 7.333-26.667 21.333-40 42-40h22c15.333 0 27 5 35 15 12 14 15 36.667 9 68-1.333 4-2.667 6.667-4 8 .667 2 1 4.667 1 8v30c-1.333 82-6 146-14 192 36.667 109.333 85.333 188.667 146 238zm-576 411c34.667-16 80.333-68.667 137-158-34 26.667-63.167 54.667-87.5 84s-40.833 54-49.5 74zm398-920c-10 28-10.667 72-2 132 .667-4.667 3-19.333 7-44 0-2 2.333-16.333 7-43 .667-2.667 2-5.333 4-8-.667-.667-1-1.333-1-2s-.167-1.167-.5-1.5c-.333-.333-.5-.833-.5-1.5-.667-14.667-5-26.667-13-36 0 .667-.333 1.333-1 2v2zm-124 661c90-36 184.667-63 284-81-1.333-.667-5.667-3.833-13-9.5s-12.667-10.167-16-13.5c-50.667-44.667-93-103.333-127-176-18 57.333-45.667 123-83 197-20 37.333-35 65-45 83zm646-16c-16-16-62.667-24-140-24 50.667 18.667 92 28 124 28 9.333 0 15.333-.333 18-1 0-.667-.667-1.667-2-3zm0 0"/></svg>