<?xml version="1.0" encoding="utf-8"?><svg width="27.43" height="32" viewBox="0.000000 -3328.000000 1536.000000 1792.000000" xmlns="http://www.w3.org/2000/svg"><path d="M1468-2948c18.667 18.667 34.667 44 48 76 13.333 32 20 61.333 20 88v1152c0 26.667-9.333 49.333-28 68s-41.333 28-68 28H96c-26.667 0-49.333-9.333-68-28s-28-41.333-28-68v-1600c0-26.667 9.333-49.333 28-68s41.333-28 68-28h896c26.667 0 56 6.667 88 20s57.333 29.333 76 48zm-444-244v376h376c-6.667-19.333-14-33-22-41l-313-313c-8-8-21.667-15.333-41-22zm384 1528v-1024H992c-26.667 0-49.333-9.333-68-28s-28-41.333-28-68v-416H128v1536h1280zM233-2560v107h70l164 661h159l128-485c4.667-13.333 8-28.667 10-46 1.333-10.667 2-18.667 2-24h4l3 24c.667 2 1.833 8.667 3.5 20s3.5 20 5.5 26l128 485h159l164-661h70v-107h-300v107h90l-99 438c-3.333 13.333-5.667 28.667-7 46l-2 21h-4l-3-21c-.667-3.333-2-10.333-4-21s-3.667-19-5-25l-144-545H711l-144 545c-1.333 6-2.833 14.167-4.5 24.5a4916.176 4916.176 0 0 1-3.5 21.5l-4 21h-4l-2-21c-1.333-17.333-3.667-32.667-7-46l-99-438h90v-107H233zm0 0"/></svg>