<?xml version="1.0" encoding="utf-8"?><svg xmlns="http://www.w3.org/2000/svg" viewBox="0 0 100 100" width="32" height="32"><path class="ccst1" d="M91.6 83.3l-6 .5-8.6.9s-3 2.4-4.4 3c-1.4.6-3.6 1.8-7.6 2.8-4.1 1.1-11.4 2.5-11.4 2.5l-22.3 4.5s-3.8.6-4.6-2.9c-.8-3.5 3.7-4.7 3.7-4.7s15.3-3.4 15.7-3.5c.5-.2 1.5-.6 1.5-1.5-.1-.8-1.2-.8-1.2-.8s-15.9 2.3-17.9 2.5c-2.1.1-4.5.4-4.5.4s-4.2.6-4.8-2.9c-.6-3.6 3.2-4.3 3.2-4.3s3.1-.6 4.4-.7C28.2 78.9 35 78 35 78l10.2-1.4s.5-.1.8-.4.6-.6.5-.9c-.1-.6-1.5-.9-1.5-.9l-20.8 1.2s-3.4.3-4.3.3-2.2-.1-2.2-.1-3.8-.1-3.5-3.7c.3-3.6 4.8-3.8 4.8-3.8s1.2-.1 3.5-.2 14.9-.7 14.9-.7l6-.4s2.3-.1 2.2-1.2c-.1-1.1-2.1-1.1-2.1-1.1H31.4L20.8 64s-3.8-.3-3.6-3.9 4.4-3.6 4.4-3.6l2.2-.1s26.3.3 26.9.1c.6-.1 1.7-.2 2.3-1.4.6-1.2-.7-2.9-.7-2.9l-6.9-7s-1.7-2-1.8-5.3c-.1-3.4 2.8-4 2.8-4s27.3 19.2 28.2 19.6c.8.3 6.5 1.3 7.5 1.2.9-.1 5.4-.4 5.4-.4s4.2-.1 4.2.3c-.1.4-.1 26.7-.1 26.7z"/><path class="ccst1" d="M81.1 54.2H77l-8.9-5.9-18.7-13.2-1.9-1.2s-1.5-.8-3.1.2-1.8 1.7-1.8 1.7-1.2 2.1-1.3 3.4.3 3.1.5 3.6c.2.4.7 1.7 1.4 2.7.6 1.1 2.1 2.6 2.1 2.6s4.2 4.2 4.5 4.6 1.1 1.4 1.1 1.4h-9.5l-6 .3s-1.3.1-2.8-.2-2.4-.7-2.4-.7l-19.4-8.4s-2.5-1.4-1.6-4.2c.9-2.8 3.6-2.5 3.6-2.5s.8 0 1.6.3 12.1 4.5 12.1 4.5l3.3 1.3s1.7.7 2.2-.3c.5-1-1.6-2-1.6-2l-20.2-9.8s-2.9-2.2-1.3-4.9 4.3-2 4.3-2 1.3.4 1.7.6 9.5 4.9 10.9 5.4c1.4.5 7.8 4 7.8 4s2.1 1.2 2.8.1c.7-1.1-1.8-2.3-1.8-2.3l-22.3-13s-3-2.5-1-5.3 5.2-1.1 5.2-1.1l5.9 3.7 16.4 9.6s1.6.8 2.2-.2-1.3-2.2-1.3-2.2l-6.1-4-12.5-9s-2.4-2.5-.7-5 4.5-1.5 4.5-1.5.7.2 1.2.5c.1.2 1.6 1.4 3.9 2.9 7 4.7 20.7 13.8 20.7 13.8s1.4.4 2.4-.2.9-2.4.9-2.4-.6-4.1-1.2-6c-.5-1.9-.5-5.2-.5-5.2s-.2-2.3 1.7-4.5 3.8-1.6 3.8-1.6l2.5 5.8 9 22.4s2 5.6 2.9 6.3c.2.1.6.5 1.2 1 1.7 1.1 4.7 2.9 4.9 3 .3.2 2.7 2.1 2.7 2.1v11z"/></svg>