<svg width="16" height="14" viewBox="0 0 16 16" xmlns="http://www.w3.org/2000/svg"><path d="M3.343 5.202c0-2.407 1.546-4.446 3.678-5.136H0L3.405 6.03a5.543 5.543 0 0 1-.062-.829zm4.611 4.97a4.465 4.465 0 0 1-2.705-.91L7.954 14l2.706-4.739a4.465 4.465 0 0 1-2.706.911zM15.91.066h-6.26c-3.563 0-4.414 2.83-4.414 4.159 0 .595.123 1.161.344 1.674l.1.204a2.584 2.584 0 0 0 2.167 1.37 1.82 1.82 0 0 0 .207 0c1.015-.052 1.823-.91 1.823-1.96 0-1.084-.859-1.962-1.918-1.964a2.674 2.674 0 0 1 1.865-.755c1.502 0 2.72 1.245 2.72 2.78 0 .154-.013.305-.037.452L15.91.066z" fill="#000" fill-rule="evenodd"/></svg>