<svg width="42" height="36" viewBox="0 0 42 36" xmlns="http://www.w3.org/2000/svg"><title>logo</title><g fill="none" fill-rule="evenodd"><path d="M41.858.11H25.383c-9.38 0-11.618 7.288-11.618 10.71 0 1.535.323 2.993.904 4.313.085.18.174.355.26.526 1.12 2.03 3.244 3.43 5.704 3.53v-.005h-.002c.095.004.19.007.287.007.087 0 .173-.003.26-.006 2.672-.137 4.797-2.346 4.797-5.05 0-2.79-2.26-5.053-5.05-5.058.092-.086.186-.168.283-.247 1.25-1.06 2.864-1.697 4.628-1.697 3.953 0 7.158 3.205 7.158 7.158 0 .398-.034.787-.096 1.167L41.857.11z" fill="#008B40"/><path d="M8.8 13.23c0-6.2 4.067-11.45 9.68-13.23H0l8.962 15.364c-.107-.696-.163-1.408-.163-2.134" fill="#0064A9"/><path d="M20.92 26.14c-2.666 0-5.13-.872-7.12-2.346L20.92 36l7.12-12.206c-1.99 1.474-4.452 2.347-7.12 2.347" fill="#008B40"/></g></svg>